<?xml version="1.0" encoding="utf-8" standalone="no"?>
<!DOCTYPE svg PUBLIC "-//W3C//DTD SVG 1.1//EN"
  "http://www.w3.org/Graphics/SVG/1.1/DTD/svg11.dtd">
<!-- Created with matplotlib (https://matplotlib.org/) -->
<svg height="432pt" version="1.1" viewBox="0 0 576 432" width="576pt" xmlns="http://www.w3.org/2000/svg" xmlns:xlink="http://www.w3.org/1999/xlink">
 <metadata>
  <rdf:RDF xmlns:cc="http://creativecommons.org/ns#" xmlns:dc="http://purl.org/dc/elements/1.1/" xmlns:rdf="http://www.w3.org/1999/02/22-rdf-syntax-ns#">
   <cc:Work>
    <dc:type rdf:resource="http://purl.org/dc/dcmitype/StillImage"/>
    <dc:date>2024-04-22T07:39:10.755648</dc:date>
    <dc:format>image/svg+xml</dc:format>
    <dc:creator>
     <cc:Agent>
      <dc:title>Matplotlib v3.3.4, https://matplotlib.org/</dc:title>
     </cc:Agent>
    </dc:creator>
   </cc:Work>
  </rdf:RDF>
 </metadata>
 <defs>
  <style type="text/css">*{stroke-linecap:butt;stroke-linejoin:round;}</style>
 </defs>
 <g id="figure_1">
  <g id="patch_1">
   <path d="M 0 432 
L 576 432 
L 576 0 
L 0 0 
z
" style="fill:#ffffff;"/>
  </g>
  <g id="axes_1">
   <g id="patch_2">
    <path d="M 73.515 384.856 
L 547.125 384.856 
L 547.125 54.4496 
L 73.515 54.4496 
z
" style="fill:#ffffff;"/>
   </g>
   <g id="matplotlib.axis_1">
    <g id="xtick_1">
     <g id="line2d_1">
      <path clip-path="url(#p35c0bdbbd5)" d="M 148.862045 384.856 
L 148.862045 54.4496 
" style="fill:none;stroke:#b0b0b0;stroke-linecap:square;stroke-width:0.8;"/>
     </g>
     <g id="line2d_2">
      <defs>
       <path d="M 0 0 
L 0 3.5 
" id="mac6dc0715b" style="stroke:#000000;stroke-width:0.8;"/>
      </defs>
      <g>
       <use style="stroke:#000000;stroke-width:0.8;" x="148.862045" xlink:href="#mac6dc0715b" y="384.856"/>
      </g>
     </g>
     <g id="text_1">
      <!-- $\mathdefault{2^{1}}$ -->
      <g transform="translate(142.702045 400.214281)scale(0.11 -0.11)">
       <defs>
        <path d="M 19.1875 8.296875 
L 53.609375 8.296875 
L 53.609375 0 
L 7.328125 0 
L 7.328125 8.296875 
Q 12.9375 14.109375 22.625 23.890625 
Q 32.328125 33.6875 34.8125 36.53125 
Q 39.546875 41.84375 41.421875 45.53125 
Q 43.3125 49.21875 43.3125 52.78125 
Q 43.3125 58.59375 39.234375 62.25 
Q 35.15625 65.921875 28.609375 65.921875 
Q 23.96875 65.921875 18.8125 64.3125 
Q 13.671875 62.703125 7.8125 59.421875 
L 7.8125 69.390625 
Q 13.765625 71.78125 18.9375 73 
Q 24.125 74.21875 28.421875 74.21875 
Q 39.75 74.21875 46.484375 68.546875 
Q 53.21875 62.890625 53.21875 53.421875 
Q 53.21875 48.921875 51.53125 44.890625 
Q 49.859375 40.875 45.40625 35.40625 
Q 44.1875 33.984375 37.640625 27.21875 
Q 31.109375 20.453125 19.1875 8.296875 
z
" id="DejaVuSans-50"/>
        <path d="M 12.40625 8.296875 
L 28.515625 8.296875 
L 28.515625 63.921875 
L 10.984375 60.40625 
L 10.984375 69.390625 
L 28.421875 72.90625 
L 38.28125 72.90625 
L 38.28125 8.296875 
L 54.390625 8.296875 
L 54.390625 0 
L 12.40625 0 
z
" id="DejaVuSans-49"/>
       </defs>
       <use transform="translate(0 0.684375)" xlink:href="#DejaVuSans-50"/>
       <use transform="translate(64.580078 38.965625)scale(0.7)" xlink:href="#DejaVuSans-49"/>
      </g>
     </g>
    </g>
    <g id="xtick_2">
     <g id="line2d_3">
      <path clip-path="url(#p35c0bdbbd5)" d="M 256.500682 384.856 
L 256.500682 54.4496 
" style="fill:none;stroke:#b0b0b0;stroke-linecap:square;stroke-width:0.8;"/>
     </g>
     <g id="line2d_4">
      <g>
       <use style="stroke:#000000;stroke-width:0.8;" x="256.500682" xlink:href="#mac6dc0715b" y="384.856"/>
      </g>
     </g>
     <g id="text_2">
      <!-- $\mathdefault{2^{3}}$ -->
      <g transform="translate(250.340682 400.214281)scale(0.11 -0.11)">
       <defs>
        <path d="M 40.578125 39.3125 
Q 47.65625 37.796875 51.625 33 
Q 55.609375 28.21875 55.609375 21.1875 
Q 55.609375 10.40625 48.1875 4.484375 
Q 40.765625 -1.421875 27.09375 -1.421875 
Q 22.515625 -1.421875 17.65625 -0.515625 
Q 12.796875 0.390625 7.625 2.203125 
L 7.625 11.71875 
Q 11.71875 9.328125 16.59375 8.109375 
Q 21.484375 6.890625 26.8125 6.890625 
Q 36.078125 6.890625 40.9375 10.546875 
Q 45.796875 14.203125 45.796875 21.1875 
Q 45.796875 27.640625 41.28125 31.265625 
Q 36.765625 34.90625 28.71875 34.90625 
L 20.21875 34.90625 
L 20.21875 43.015625 
L 29.109375 43.015625 
Q 36.375 43.015625 40.234375 45.921875 
Q 44.09375 48.828125 44.09375 54.296875 
Q 44.09375 59.90625 40.109375 62.90625 
Q 36.140625 65.921875 28.71875 65.921875 
Q 24.65625 65.921875 20.015625 65.03125 
Q 15.375 64.15625 9.8125 62.3125 
L 9.8125 71.09375 
Q 15.4375 72.65625 20.34375 73.4375 
Q 25.25 74.21875 29.59375 74.21875 
Q 40.828125 74.21875 47.359375 69.109375 
Q 53.90625 64.015625 53.90625 55.328125 
Q 53.90625 49.265625 50.4375 45.09375 
Q 46.96875 40.921875 40.578125 39.3125 
z
" id="DejaVuSans-51"/>
       </defs>
       <use transform="translate(0 0.765625)" xlink:href="#DejaVuSans-50"/>
       <use transform="translate(64.580078 39.046875)scale(0.7)" xlink:href="#DejaVuSans-51"/>
      </g>
     </g>
    </g>
    <g id="xtick_3">
     <g id="line2d_5">
      <path clip-path="url(#p35c0bdbbd5)" d="M 364.139318 384.856 
L 364.139318 54.4496 
" style="fill:none;stroke:#b0b0b0;stroke-linecap:square;stroke-width:0.8;"/>
     </g>
     <g id="line2d_6">
      <g>
       <use style="stroke:#000000;stroke-width:0.8;" x="364.139318" xlink:href="#mac6dc0715b" y="384.856"/>
      </g>
     </g>
     <g id="text_3">
      <!-- $\mathdefault{2^{5}}$ -->
      <g transform="translate(357.979318 400.214281)scale(0.11 -0.11)">
       <defs>
        <path d="M 10.796875 72.90625 
L 49.515625 72.90625 
L 49.515625 64.59375 
L 19.828125 64.59375 
L 19.828125 46.734375 
Q 21.96875 47.46875 24.109375 47.828125 
Q 26.265625 48.1875 28.421875 48.1875 
Q 40.625 48.1875 47.75 41.5 
Q 54.890625 34.8125 54.890625 23.390625 
Q 54.890625 11.625 47.5625 5.09375 
Q 40.234375 -1.421875 26.90625 -1.421875 
Q 22.3125 -1.421875 17.546875 -0.640625 
Q 12.796875 0.140625 7.71875 1.703125 
L 7.71875 11.625 
Q 12.109375 9.234375 16.796875 8.0625 
Q 21.484375 6.890625 26.703125 6.890625 
Q 35.15625 6.890625 40.078125 11.328125 
Q 45.015625 15.765625 45.015625 23.390625 
Q 45.015625 31 40.078125 35.4375 
Q 35.15625 39.890625 26.703125 39.890625 
Q 22.75 39.890625 18.8125 39.015625 
Q 14.890625 38.140625 10.796875 36.28125 
z
" id="DejaVuSans-53"/>
       </defs>
       <use transform="translate(0 0.684375)" xlink:href="#DejaVuSans-50"/>
       <use transform="translate(64.580078 38.965625)scale(0.7)" xlink:href="#DejaVuSans-53"/>
      </g>
     </g>
    </g>
    <g id="xtick_4">
     <g id="line2d_7">
      <path clip-path="url(#p35c0bdbbd5)" d="M 471.777955 384.856 
L 471.777955 54.4496 
" style="fill:none;stroke:#b0b0b0;stroke-linecap:square;stroke-width:0.8;"/>
     </g>
     <g id="line2d_8">
      <g>
       <use style="stroke:#000000;stroke-width:0.8;" x="471.777955" xlink:href="#mac6dc0715b" y="384.856"/>
      </g>
     </g>
     <g id="text_4">
      <!-- $\mathdefault{2^{7}}$ -->
      <g transform="translate(465.617955 400.214281)scale(0.11 -0.11)">
       <defs>
        <path d="M 8.203125 72.90625 
L 55.078125 72.90625 
L 55.078125 68.703125 
L 28.609375 0 
L 18.3125 0 
L 43.21875 64.59375 
L 8.203125 64.59375 
z
" id="DejaVuSans-55"/>
       </defs>
       <use transform="translate(0 0.684375)" xlink:href="#DejaVuSans-50"/>
       <use transform="translate(64.580078 38.965625)scale(0.7)" xlink:href="#DejaVuSans-55"/>
      </g>
     </g>
    </g>
    <g id="text_5">
     <!-- Number of cores -->
     <g transform="translate(264.651953 414.860219)scale(0.11 -0.11)">
      <defs>
       <path d="M 9.8125 72.90625 
L 23.09375 72.90625 
L 55.421875 11.921875 
L 55.421875 72.90625 
L 64.984375 72.90625 
L 64.984375 0 
L 51.703125 0 
L 19.390625 60.984375 
L 19.390625 0 
L 9.8125 0 
z
" id="DejaVuSans-78"/>
       <path d="M 8.5 21.578125 
L 8.5 54.6875 
L 17.484375 54.6875 
L 17.484375 21.921875 
Q 17.484375 14.15625 20.5 10.265625 
Q 23.53125 6.390625 29.59375 6.390625 
Q 36.859375 6.390625 41.078125 11.03125 
Q 45.3125 15.671875 45.3125 23.6875 
L 45.3125 54.6875 
L 54.296875 54.6875 
L 54.296875 0 
L 45.3125 0 
L 45.3125 8.40625 
Q 42.046875 3.421875 37.71875 1 
Q 33.40625 -1.421875 27.6875 -1.421875 
Q 18.265625 -1.421875 13.375 4.4375 
Q 8.5 10.296875 8.5 21.578125 
z
M 31.109375 56 
z
" id="DejaVuSans-117"/>
       <path d="M 52 44.1875 
Q 55.375 50.25 60.0625 53.125 
Q 64.75 56 71.09375 56 
Q 79.640625 56 84.28125 50.015625 
Q 88.921875 44.046875 88.921875 33.015625 
L 88.921875 0 
L 79.890625 0 
L 79.890625 32.71875 
Q 79.890625 40.578125 77.09375 44.375 
Q 74.3125 48.1875 68.609375 48.1875 
Q 61.625 48.1875 57.5625 43.546875 
Q 53.515625 38.921875 53.515625 30.90625 
L 53.515625 0 
L 44.484375 0 
L 44.484375 32.71875 
Q 44.484375 40.625 41.703125 44.40625 
Q 38.921875 48.1875 33.109375 48.1875 
Q 26.21875 48.1875 22.15625 43.53125 
Q 18.109375 38.875 18.109375 30.90625 
L 18.109375 0 
L 9.078125 0 
L 9.078125 54.6875 
L 18.109375 54.6875 
L 18.109375 46.1875 
Q 21.1875 51.21875 25.484375 53.609375 
Q 29.78125 56 35.6875 56 
Q 41.65625 56 45.828125 52.96875 
Q 50 49.953125 52 44.1875 
z
" id="DejaVuSans-109"/>
       <path d="M 48.6875 27.296875 
Q 48.6875 37.203125 44.609375 42.84375 
Q 40.53125 48.484375 33.40625 48.484375 
Q 26.265625 48.484375 22.1875 42.84375 
Q 18.109375 37.203125 18.109375 27.296875 
Q 18.109375 17.390625 22.1875 11.75 
Q 26.265625 6.109375 33.40625 6.109375 
Q 40.53125 6.109375 44.609375 11.75 
Q 48.6875 17.390625 48.6875 27.296875 
z
M 18.109375 46.390625 
Q 20.953125 51.265625 25.265625 53.625 
Q 29.59375 56 35.59375 56 
Q 45.5625 56 51.78125 48.09375 
Q 58.015625 40.1875 58.015625 27.296875 
Q 58.015625 14.40625 51.78125 6.484375 
Q 45.5625 -1.421875 35.59375 -1.421875 
Q 29.59375 -1.421875 25.265625 0.953125 
Q 20.953125 3.328125 18.109375 8.203125 
L 18.109375 0 
L 9.078125 0 
L 9.078125 75.984375 
L 18.109375 75.984375 
z
" id="DejaVuSans-98"/>
       <path d="M 56.203125 29.59375 
L 56.203125 25.203125 
L 14.890625 25.203125 
Q 15.484375 15.921875 20.484375 11.0625 
Q 25.484375 6.203125 34.421875 6.203125 
Q 39.59375 6.203125 44.453125 7.46875 
Q 49.3125 8.734375 54.109375 11.28125 
L 54.109375 2.78125 
Q 49.265625 0.734375 44.1875 -0.34375 
Q 39.109375 -1.421875 33.890625 -1.421875 
Q 20.796875 -1.421875 13.15625 6.1875 
Q 5.515625 13.8125 5.515625 26.8125 
Q 5.515625 40.234375 12.765625 48.109375 
Q 20.015625 56 32.328125 56 
Q 43.359375 56 49.78125 48.890625 
Q 56.203125 41.796875 56.203125 29.59375 
z
M 47.21875 32.234375 
Q 47.125 39.59375 43.09375 43.984375 
Q 39.0625 48.390625 32.421875 48.390625 
Q 24.90625 48.390625 20.390625 44.140625 
Q 15.875 39.890625 15.1875 32.171875 
z
" id="DejaVuSans-101"/>
       <path d="M 41.109375 46.296875 
Q 39.59375 47.171875 37.8125 47.578125 
Q 36.03125 48 33.890625 48 
Q 26.265625 48 22.1875 43.046875 
Q 18.109375 38.09375 18.109375 28.8125 
L 18.109375 0 
L 9.078125 0 
L 9.078125 54.6875 
L 18.109375 54.6875 
L 18.109375 46.1875 
Q 20.953125 51.171875 25.484375 53.578125 
Q 30.03125 56 36.53125 56 
Q 37.453125 56 38.578125 55.875 
Q 39.703125 55.765625 41.0625 55.515625 
z
" id="DejaVuSans-114"/>
       <path id="DejaVuSans-32"/>
       <path d="M 30.609375 48.390625 
Q 23.390625 48.390625 19.1875 42.75 
Q 14.984375 37.109375 14.984375 27.296875 
Q 14.984375 17.484375 19.15625 11.84375 
Q 23.34375 6.203125 30.609375 6.203125 
Q 37.796875 6.203125 41.984375 11.859375 
Q 46.1875 17.53125 46.1875 27.296875 
Q 46.1875 37.015625 41.984375 42.703125 
Q 37.796875 48.390625 30.609375 48.390625 
z
M 30.609375 56 
Q 42.328125 56 49.015625 48.375 
Q 55.71875 40.765625 55.71875 27.296875 
Q 55.71875 13.875 49.015625 6.21875 
Q 42.328125 -1.421875 30.609375 -1.421875 
Q 18.84375 -1.421875 12.171875 6.21875 
Q 5.515625 13.875 5.515625 27.296875 
Q 5.515625 40.765625 12.171875 48.375 
Q 18.84375 56 30.609375 56 
z
" id="DejaVuSans-111"/>
       <path d="M 37.109375 75.984375 
L 37.109375 68.5 
L 28.515625 68.5 
Q 23.6875 68.5 21.796875 66.546875 
Q 19.921875 64.59375 19.921875 59.515625 
L 19.921875 54.6875 
L 34.71875 54.6875 
L 34.71875 47.703125 
L 19.921875 47.703125 
L 19.921875 0 
L 10.890625 0 
L 10.890625 47.703125 
L 2.296875 47.703125 
L 2.296875 54.6875 
L 10.890625 54.6875 
L 10.890625 58.5 
Q 10.890625 67.625 15.140625 71.796875 
Q 19.390625 75.984375 28.609375 75.984375 
z
" id="DejaVuSans-102"/>
       <path d="M 48.78125 52.59375 
L 48.78125 44.1875 
Q 44.96875 46.296875 41.140625 47.34375 
Q 37.3125 48.390625 33.40625 48.390625 
Q 24.65625 48.390625 19.8125 42.84375 
Q 14.984375 37.3125 14.984375 27.296875 
Q 14.984375 17.28125 19.8125 11.734375 
Q 24.65625 6.203125 33.40625 6.203125 
Q 37.3125 6.203125 41.140625 7.25 
Q 44.96875 8.296875 48.78125 10.40625 
L 48.78125 2.09375 
Q 45.015625 0.34375 40.984375 -0.53125 
Q 36.96875 -1.421875 32.421875 -1.421875 
Q 20.0625 -1.421875 12.78125 6.34375 
Q 5.515625 14.109375 5.515625 27.296875 
Q 5.515625 40.671875 12.859375 48.328125 
Q 20.21875 56 33.015625 56 
Q 37.15625 56 41.109375 55.140625 
Q 45.0625 54.296875 48.78125 52.59375 
z
" id="DejaVuSans-99"/>
       <path d="M 44.28125 53.078125 
L 44.28125 44.578125 
Q 40.484375 46.53125 36.375 47.5 
Q 32.28125 48.484375 27.875 48.484375 
Q 21.1875 48.484375 17.84375 46.4375 
Q 14.5 44.390625 14.5 40.28125 
Q 14.5 37.15625 16.890625 35.375 
Q 19.28125 33.59375 26.515625 31.984375 
L 29.59375 31.296875 
Q 39.15625 29.25 43.1875 25.515625 
Q 47.21875 21.78125 47.21875 15.09375 
Q 47.21875 7.46875 41.1875 3.015625 
Q 35.15625 -1.421875 24.609375 -1.421875 
Q 20.21875 -1.421875 15.453125 -0.5625 
Q 10.6875 0.296875 5.421875 2 
L 5.421875 11.28125 
Q 10.40625 8.6875 15.234375 7.390625 
Q 20.0625 6.109375 24.8125 6.109375 
Q 31.15625 6.109375 34.5625 8.28125 
Q 37.984375 10.453125 37.984375 14.40625 
Q 37.984375 18.0625 35.515625 20.015625 
Q 33.0625 21.96875 24.703125 23.78125 
L 21.578125 24.515625 
Q 13.234375 26.265625 9.515625 29.90625 
Q 5.8125 33.546875 5.8125 39.890625 
Q 5.8125 47.609375 11.28125 51.796875 
Q 16.75 56 26.8125 56 
Q 31.78125 56 36.171875 55.265625 
Q 40.578125 54.546875 44.28125 53.078125 
z
" id="DejaVuSans-115"/>
      </defs>
      <use xlink:href="#DejaVuSans-78"/>
      <use x="74.804688" xlink:href="#DejaVuSans-117"/>
      <use x="138.183594" xlink:href="#DejaVuSans-109"/>
      <use x="235.595703" xlink:href="#DejaVuSans-98"/>
      <use x="299.072266" xlink:href="#DejaVuSans-101"/>
      <use x="360.595703" xlink:href="#DejaVuSans-114"/>
      <use x="401.708984" xlink:href="#DejaVuSans-32"/>
      <use x="433.496094" xlink:href="#DejaVuSans-111"/>
      <use x="494.677734" xlink:href="#DejaVuSans-102"/>
      <use x="529.882812" xlink:href="#DejaVuSans-32"/>
      <use x="561.669922" xlink:href="#DejaVuSans-99"/>
      <use x="616.650391" xlink:href="#DejaVuSans-111"/>
      <use x="677.832031" xlink:href="#DejaVuSans-114"/>
      <use x="716.695312" xlink:href="#DejaVuSans-101"/>
      <use x="778.21875" xlink:href="#DejaVuSans-115"/>
     </g>
    </g>
   </g>
   <g id="matplotlib.axis_2">
    <g id="ytick_1">
     <g id="line2d_9">
      <path clip-path="url(#p35c0bdbbd5)" d="M 73.515 348.830918 
L 547.125 348.830918 
" style="fill:none;stroke:#b0b0b0;stroke-linecap:square;stroke-width:0.8;"/>
     </g>
     <g id="line2d_10">
      <defs>
       <path d="M 0 0 
L -3.5 0 
" id="m6db60a33c2" style="stroke:#000000;stroke-width:0.8;"/>
      </defs>
      <g>
       <use style="stroke:#000000;stroke-width:0.8;" x="73.515" xlink:href="#m6db60a33c2" y="348.830918"/>
      </g>
     </g>
     <g id="text_6">
      <!-- $\mathdefault{2^{-15}}$ -->
      <g transform="translate(42.755 353.010059)scale(0.11 -0.11)">
       <defs>
        <path d="M 10.59375 35.5 
L 73.1875 35.5 
L 73.1875 27.203125 
L 10.59375 27.203125 
z
" id="DejaVuSans-8722"/>
       </defs>
       <use transform="translate(0 0.684375)" xlink:href="#DejaVuSans-50"/>
       <use transform="translate(64.580078 38.965625)scale(0.7)" xlink:href="#DejaVuSans-8722"/>
       <use transform="translate(123.232422 38.965625)scale(0.7)" xlink:href="#DejaVuSans-49"/>
       <use transform="translate(167.768555 38.965625)scale(0.7)" xlink:href="#DejaVuSans-53"/>
      </g>
     </g>
    </g>
    <g id="ytick_2">
     <g id="line2d_11">
      <path clip-path="url(#p35c0bdbbd5)" d="M 73.515 301.621876 
L 547.125 301.621876 
" style="fill:none;stroke:#b0b0b0;stroke-linecap:square;stroke-width:0.8;"/>
     </g>
     <g id="line2d_12">
      <g>
       <use style="stroke:#000000;stroke-width:0.8;" x="73.515" xlink:href="#m6db60a33c2" y="301.621876"/>
      </g>
     </g>
     <g id="text_7">
      <!-- $\mathdefault{2^{-13}}$ -->
      <g transform="translate(42.755 305.801017)scale(0.11 -0.11)">
       <use transform="translate(0 0.765625)" xlink:href="#DejaVuSans-50"/>
       <use transform="translate(64.580078 39.046875)scale(0.7)" xlink:href="#DejaVuSans-8722"/>
       <use transform="translate(123.232422 39.046875)scale(0.7)" xlink:href="#DejaVuSans-49"/>
       <use transform="translate(167.768555 39.046875)scale(0.7)" xlink:href="#DejaVuSans-51"/>
      </g>
     </g>
    </g>
    <g id="ytick_3">
     <g id="line2d_13">
      <path clip-path="url(#p35c0bdbbd5)" d="M 73.515 254.412834 
L 547.125 254.412834 
" style="fill:none;stroke:#b0b0b0;stroke-linecap:square;stroke-width:0.8;"/>
     </g>
     <g id="line2d_14">
      <g>
       <use style="stroke:#000000;stroke-width:0.8;" x="73.515" xlink:href="#m6db60a33c2" y="254.412834"/>
      </g>
     </g>
     <g id="text_8">
      <!-- $\mathdefault{2^{-11}}$ -->
      <g transform="translate(42.755 258.591975)scale(0.11 -0.11)">
       <use transform="translate(0 0.684375)" xlink:href="#DejaVuSans-50"/>
       <use transform="translate(64.580078 38.965625)scale(0.7)" xlink:href="#DejaVuSans-8722"/>
       <use transform="translate(123.232422 38.965625)scale(0.7)" xlink:href="#DejaVuSans-49"/>
       <use transform="translate(167.768555 38.965625)scale(0.7)" xlink:href="#DejaVuSans-49"/>
      </g>
     </g>
    </g>
    <g id="ytick_4">
     <g id="line2d_15">
      <path clip-path="url(#p35c0bdbbd5)" d="M 73.515 207.203792 
L 547.125 207.203792 
" style="fill:none;stroke:#b0b0b0;stroke-linecap:square;stroke-width:0.8;"/>
     </g>
     <g id="line2d_16">
      <g>
       <use style="stroke:#000000;stroke-width:0.8;" x="73.515" xlink:href="#m6db60a33c2" y="207.203792"/>
      </g>
     </g>
     <g id="text_9">
      <!-- $\mathdefault{2^{-9}}$ -->
      <g transform="translate(47.705 211.382933)scale(0.11 -0.11)">
       <defs>
        <path d="M 10.984375 1.515625 
L 10.984375 10.5 
Q 14.703125 8.734375 18.5 7.8125 
Q 22.3125 6.890625 25.984375 6.890625 
Q 35.75 6.890625 40.890625 13.453125 
Q 46.046875 20.015625 46.78125 33.40625 
Q 43.953125 29.203125 39.59375 26.953125 
Q 35.25 24.703125 29.984375 24.703125 
Q 19.046875 24.703125 12.671875 31.3125 
Q 6.296875 37.9375 6.296875 49.421875 
Q 6.296875 60.640625 12.9375 67.421875 
Q 19.578125 74.21875 30.609375 74.21875 
Q 43.265625 74.21875 49.921875 64.515625 
Q 56.59375 54.828125 56.59375 36.375 
Q 56.59375 19.140625 48.40625 8.859375 
Q 40.234375 -1.421875 26.421875 -1.421875 
Q 22.703125 -1.421875 18.890625 -0.6875 
Q 15.09375 0.046875 10.984375 1.515625 
z
M 30.609375 32.421875 
Q 37.25 32.421875 41.125 36.953125 
Q 45.015625 41.5 45.015625 49.421875 
Q 45.015625 57.28125 41.125 61.84375 
Q 37.25 66.40625 30.609375 66.40625 
Q 23.96875 66.40625 20.09375 61.84375 
Q 16.21875 57.28125 16.21875 49.421875 
Q 16.21875 41.5 20.09375 36.953125 
Q 23.96875 32.421875 30.609375 32.421875 
z
" id="DejaVuSans-57"/>
       </defs>
       <use transform="translate(0 0.765625)" xlink:href="#DejaVuSans-50"/>
       <use transform="translate(64.580078 39.046875)scale(0.7)" xlink:href="#DejaVuSans-8722"/>
       <use transform="translate(123.232422 39.046875)scale(0.7)" xlink:href="#DejaVuSans-57"/>
      </g>
     </g>
    </g>
    <g id="ytick_5">
     <g id="line2d_17">
      <path clip-path="url(#p35c0bdbbd5)" d="M 73.515 159.99475 
L 547.125 159.99475 
" style="fill:none;stroke:#b0b0b0;stroke-linecap:square;stroke-width:0.8;"/>
     </g>
     <g id="line2d_18">
      <g>
       <use style="stroke:#000000;stroke-width:0.8;" x="73.515" xlink:href="#m6db60a33c2" y="159.99475"/>
      </g>
     </g>
     <g id="text_10">
      <!-- $\mathdefault{2^{-7}}$ -->
      <g transform="translate(47.705 164.173891)scale(0.11 -0.11)">
       <use transform="translate(0 0.684375)" xlink:href="#DejaVuSans-50"/>
       <use transform="translate(64.580078 38.965625)scale(0.7)" xlink:href="#DejaVuSans-8722"/>
       <use transform="translate(123.232422 38.965625)scale(0.7)" xlink:href="#DejaVuSans-55"/>
      </g>
     </g>
    </g>
    <g id="ytick_6">
     <g id="line2d_19">
      <path clip-path="url(#p35c0bdbbd5)" d="M 73.515 112.785709 
L 547.125 112.785709 
" style="fill:none;stroke:#b0b0b0;stroke-linecap:square;stroke-width:0.8;"/>
     </g>
     <g id="line2d_20">
      <g>
       <use style="stroke:#000000;stroke-width:0.8;" x="73.515" xlink:href="#m6db60a33c2" y="112.785709"/>
      </g>
     </g>
     <g id="text_11">
      <!-- $\mathdefault{2^{-5}}$ -->
      <g transform="translate(47.705 116.964849)scale(0.11 -0.11)">
       <use transform="translate(0 0.684375)" xlink:href="#DejaVuSans-50"/>
       <use transform="translate(64.580078 38.965625)scale(0.7)" xlink:href="#DejaVuSans-8722"/>
       <use transform="translate(123.232422 38.965625)scale(0.7)" xlink:href="#DejaVuSans-53"/>
      </g>
     </g>
    </g>
    <g id="ytick_7">
     <g id="line2d_21">
      <path clip-path="url(#p35c0bdbbd5)" d="M 73.515 65.576667 
L 547.125 65.576667 
" style="fill:none;stroke:#b0b0b0;stroke-linecap:square;stroke-width:0.8;"/>
     </g>
     <g id="line2d_22">
      <g>
       <use style="stroke:#000000;stroke-width:0.8;" x="73.515" xlink:href="#m6db60a33c2" y="65.576667"/>
      </g>
     </g>
     <g id="text_12">
      <!-- $\mathdefault{2^{-3}}$ -->
      <g transform="translate(47.705 69.755807)scale(0.11 -0.11)">
       <use transform="translate(0 0.765625)" xlink:href="#DejaVuSans-50"/>
       <use transform="translate(64.580078 39.046875)scale(0.7)" xlink:href="#DejaVuSans-8722"/>
       <use transform="translate(123.232422 39.046875)scale(0.7)" xlink:href="#DejaVuSans-51"/>
      </g>
     </g>
    </g>
    <g id="text_13">
     <!-- Iteration time [ms] -->
     <g transform="translate(36.467344 271.418112)rotate(-90)scale(0.11 -0.11)">
      <defs>
       <path d="M 9.8125 72.90625 
L 19.671875 72.90625 
L 19.671875 0 
L 9.8125 0 
z
" id="DejaVuSans-73"/>
       <path d="M 18.3125 70.21875 
L 18.3125 54.6875 
L 36.8125 54.6875 
L 36.8125 47.703125 
L 18.3125 47.703125 
L 18.3125 18.015625 
Q 18.3125 11.328125 20.140625 9.421875 
Q 21.96875 7.515625 27.59375 7.515625 
L 36.8125 7.515625 
L 36.8125 0 
L 27.59375 0 
Q 17.1875 0 13.234375 3.875 
Q 9.28125 7.765625 9.28125 18.015625 
L 9.28125 47.703125 
L 2.6875 47.703125 
L 2.6875 54.6875 
L 9.28125 54.6875 
L 9.28125 70.21875 
z
" id="DejaVuSans-116"/>
       <path d="M 34.28125 27.484375 
Q 23.390625 27.484375 19.1875 25 
Q 14.984375 22.515625 14.984375 16.5 
Q 14.984375 11.71875 18.140625 8.90625 
Q 21.296875 6.109375 26.703125 6.109375 
Q 34.1875 6.109375 38.703125 11.40625 
Q 43.21875 16.703125 43.21875 25.484375 
L 43.21875 27.484375 
z
M 52.203125 31.203125 
L 52.203125 0 
L 43.21875 0 
L 43.21875 8.296875 
Q 40.140625 3.328125 35.546875 0.953125 
Q 30.953125 -1.421875 24.3125 -1.421875 
Q 15.921875 -1.421875 10.953125 3.296875 
Q 6 8.015625 6 15.921875 
Q 6 25.140625 12.171875 29.828125 
Q 18.359375 34.515625 30.609375 34.515625 
L 43.21875 34.515625 
L 43.21875 35.40625 
Q 43.21875 41.609375 39.140625 45 
Q 35.0625 48.390625 27.6875 48.390625 
Q 23 48.390625 18.546875 47.265625 
Q 14.109375 46.140625 10.015625 43.890625 
L 10.015625 52.203125 
Q 14.9375 54.109375 19.578125 55.046875 
Q 24.21875 56 28.609375 56 
Q 40.484375 56 46.34375 49.84375 
Q 52.203125 43.703125 52.203125 31.203125 
z
" id="DejaVuSans-97"/>
       <path d="M 9.421875 54.6875 
L 18.40625 54.6875 
L 18.40625 0 
L 9.421875 0 
z
M 9.421875 75.984375 
L 18.40625 75.984375 
L 18.40625 64.59375 
L 9.421875 64.59375 
z
" id="DejaVuSans-105"/>
       <path d="M 54.890625 33.015625 
L 54.890625 0 
L 45.90625 0 
L 45.90625 32.71875 
Q 45.90625 40.484375 42.875 44.328125 
Q 39.84375 48.1875 33.796875 48.1875 
Q 26.515625 48.1875 22.3125 43.546875 
Q 18.109375 38.921875 18.109375 30.90625 
L 18.109375 0 
L 9.078125 0 
L 9.078125 54.6875 
L 18.109375 54.6875 
L 18.109375 46.1875 
Q 21.34375 51.125 25.703125 53.5625 
Q 30.078125 56 35.796875 56 
Q 45.21875 56 50.046875 50.171875 
Q 54.890625 44.34375 54.890625 33.015625 
z
" id="DejaVuSans-110"/>
       <path d="M 8.59375 75.984375 
L 29.296875 75.984375 
L 29.296875 69 
L 17.578125 69 
L 17.578125 -6.203125 
L 29.296875 -6.203125 
L 29.296875 -13.1875 
L 8.59375 -13.1875 
z
" id="DejaVuSans-91"/>
       <path d="M 30.421875 75.984375 
L 30.421875 -13.1875 
L 9.71875 -13.1875 
L 9.71875 -6.203125 
L 21.390625 -6.203125 
L 21.390625 69 
L 9.71875 69 
L 9.71875 75.984375 
z
" id="DejaVuSans-93"/>
      </defs>
      <use xlink:href="#DejaVuSans-73"/>
      <use x="29.492188" xlink:href="#DejaVuSans-116"/>
      <use x="68.701172" xlink:href="#DejaVuSans-101"/>
      <use x="130.224609" xlink:href="#DejaVuSans-114"/>
      <use x="171.337891" xlink:href="#DejaVuSans-97"/>
      <use x="232.617188" xlink:href="#DejaVuSans-116"/>
      <use x="271.826172" xlink:href="#DejaVuSans-105"/>
      <use x="299.609375" xlink:href="#DejaVuSans-111"/>
      <use x="360.791016" xlink:href="#DejaVuSans-110"/>
      <use x="424.169922" xlink:href="#DejaVuSans-32"/>
      <use x="455.957031" xlink:href="#DejaVuSans-116"/>
      <use x="495.166016" xlink:href="#DejaVuSans-105"/>
      <use x="522.949219" xlink:href="#DejaVuSans-109"/>
      <use x="620.361328" xlink:href="#DejaVuSans-101"/>
      <use x="681.884766" xlink:href="#DejaVuSans-32"/>
      <use x="713.671875" xlink:href="#DejaVuSans-91"/>
      <use x="752.685547" xlink:href="#DejaVuSans-109"/>
      <use x="850.097656" xlink:href="#DejaVuSans-115"/>
      <use x="902.197266" xlink:href="#DejaVuSans-93"/>
     </g>
    </g>
   </g>
   <g id="line2d_23">
    <path clip-path="url(#p35c0bdbbd5)" d="M 95.042727 266.277584 
L 364.139318 369.837527 
L 417.958636 354.665791 
L 471.777955 358.534791 
L 525.597273 362.356558 
" style="fill:none;stroke:#1f77b4;stroke-linecap:square;stroke-width:1.5;"/>
    <defs>
     <path d="M 0 3 
C 0.795609 3 1.55874 2.683901 2.12132 2.12132 
C 2.683901 1.55874 3 0.795609 3 0 
C 3 -0.795609 2.683901 -1.55874 2.12132 -2.12132 
C 1.55874 -2.683901 0.795609 -3 0 -3 
C -0.795609 -3 -1.55874 -2.683901 -2.12132 -2.12132 
C -2.683901 -1.55874 -3 -0.795609 -3 0 
C -3 0.795609 -2.683901 1.55874 -2.12132 2.12132 
C -1.55874 2.683901 -0.795609 3 0 3 
z
" id="mcadd05db63" style="stroke:#1f77b4;"/>
    </defs>
    <g clip-path="url(#p35c0bdbbd5)">
     <use style="fill:#1f77b4;stroke:#1f77b4;" x="95.042727" xlink:href="#mcadd05db63" y="266.277584"/>
     <use style="fill:#1f77b4;stroke:#1f77b4;" x="364.139318" xlink:href="#mcadd05db63" y="369.837527"/>
     <use style="fill:#1f77b4;stroke:#1f77b4;" x="417.958636" xlink:href="#mcadd05db63" y="354.665791"/>
     <use style="fill:#1f77b4;stroke:#1f77b4;" x="471.777955" xlink:href="#mcadd05db63" y="358.534791"/>
     <use style="fill:#1f77b4;stroke:#1f77b4;" x="525.597273" xlink:href="#mcadd05db63" y="362.356558"/>
    </g>
   </g>
   <g id="line2d_24">
    <path clip-path="url(#p35c0bdbbd5)" d="M 95.042727 265.62994 
L 364.139318 359.230933 
L 417.958636 347.229784 
L 471.777955 350.716435 
L 525.597273 353.054404 
" style="fill:none;stroke:#ff7f0e;stroke-linecap:square;stroke-width:1.5;"/>
    <defs>
     <path d="M 0 3 
C 0.795609 3 1.55874 2.683901 2.12132 2.12132 
C 2.683901 1.55874 3 0.795609 3 0 
C 3 -0.795609 2.683901 -1.55874 2.12132 -2.12132 
C 1.55874 -2.683901 0.795609 -3 0 -3 
C -0.795609 -3 -1.55874 -2.683901 -2.12132 -2.12132 
C -2.683901 -1.55874 -3 -0.795609 -3 0 
C -3 0.795609 -2.683901 1.55874 -2.12132 2.12132 
C -1.55874 2.683901 -0.795609 3 0 3 
z
" id="m3cf7631c00" style="stroke:#ff7f0e;"/>
    </defs>
    <g clip-path="url(#p35c0bdbbd5)">
     <use style="fill:#ff7f0e;stroke:#ff7f0e;" x="95.042727" xlink:href="#m3cf7631c00" y="265.62994"/>
     <use style="fill:#ff7f0e;stroke:#ff7f0e;" x="364.139318" xlink:href="#m3cf7631c00" y="359.230933"/>
     <use style="fill:#ff7f0e;stroke:#ff7f0e;" x="417.958636" xlink:href="#m3cf7631c00" y="347.229784"/>
     <use style="fill:#ff7f0e;stroke:#ff7f0e;" x="471.777955" xlink:href="#m3cf7631c00" y="350.716435"/>
     <use style="fill:#ff7f0e;stroke:#ff7f0e;" x="525.597273" xlink:href="#m3cf7631c00" y="353.054404"/>
    </g>
   </g>
   <g id="line2d_25">
    <path clip-path="url(#p35c0bdbbd5)" d="M 95.042727 265.66913 
L 364.139318 325.551414 
L 417.958636 283.36891 
L 471.777955 281.884742 
L 525.597273 277.692323 
" style="fill:none;stroke:#2ca02c;stroke-linecap:square;stroke-width:1.5;"/>
    <defs>
     <path d="M 0 3 
C 0.795609 3 1.55874 2.683901 2.12132 2.12132 
C 2.683901 1.55874 3 0.795609 3 0 
C 3 -0.795609 2.683901 -1.55874 2.12132 -2.12132 
C 1.55874 -2.683901 0.795609 -3 0 -3 
C -0.795609 -3 -1.55874 -2.683901 -2.12132 -2.12132 
C -2.683901 -1.55874 -3 -0.795609 -3 0 
C -3 0.795609 -2.683901 1.55874 -2.12132 2.12132 
C -1.55874 2.683901 -0.795609 3 0 3 
z
" id="md8a1325119" style="stroke:#2ca02c;"/>
    </defs>
    <g clip-path="url(#p35c0bdbbd5)">
     <use style="fill:#2ca02c;stroke:#2ca02c;" x="95.042727" xlink:href="#md8a1325119" y="265.66913"/>
     <use style="fill:#2ca02c;stroke:#2ca02c;" x="364.139318" xlink:href="#md8a1325119" y="325.551414"/>
     <use style="fill:#2ca02c;stroke:#2ca02c;" x="417.958636" xlink:href="#md8a1325119" y="283.36891"/>
     <use style="fill:#2ca02c;stroke:#2ca02c;" x="471.777955" xlink:href="#md8a1325119" y="281.884742"/>
     <use style="fill:#2ca02c;stroke:#2ca02c;" x="525.597273" xlink:href="#md8a1325119" y="277.692323"/>
    </g>
   </g>
   <g id="line2d_26">
    <path clip-path="url(#p35c0bdbbd5)" d="M 95.042727 219.613783 
L 364.139318 344.043043 
L 417.958636 339.32438 
L 471.777955 334.048612 
L 525.597273 339.345319 
" style="fill:none;stroke:#d62728;stroke-linecap:square;stroke-width:1.5;"/>
    <defs>
     <path d="M -0 3 
L 3 -3 
L -3 -3 
z
" id="m9428f134e3" style="stroke:#d62728;stroke-linejoin:miter;"/>
    </defs>
    <g clip-path="url(#p35c0bdbbd5)">
     <use style="fill:#d62728;stroke:#d62728;stroke-linejoin:miter;" x="95.042727" xlink:href="#m9428f134e3" y="219.613783"/>
     <use style="fill:#d62728;stroke:#d62728;stroke-linejoin:miter;" x="364.139318" xlink:href="#m9428f134e3" y="344.043043"/>
     <use style="fill:#d62728;stroke:#d62728;stroke-linejoin:miter;" x="417.958636" xlink:href="#m9428f134e3" y="339.32438"/>
     <use style="fill:#d62728;stroke:#d62728;stroke-linejoin:miter;" x="471.777955" xlink:href="#m9428f134e3" y="334.048612"/>
     <use style="fill:#d62728;stroke:#d62728;stroke-linejoin:miter;" x="525.597273" xlink:href="#m9428f134e3" y="339.345319"/>
    </g>
   </g>
   <g id="line2d_27">
    <path clip-path="url(#p35c0bdbbd5)" d="M 95.042727 218.422449 
L 364.139318 330.323657 
L 417.958636 327.397108 
L 471.777955 322.94504 
L 525.597273 327.500677 
" style="fill:none;stroke:#9467bd;stroke-linecap:square;stroke-width:1.5;"/>
    <defs>
     <path d="M -0 3 
L 3 -3 
L -3 -3 
z
" id="m8b8186449c" style="stroke:#9467bd;stroke-linejoin:miter;"/>
    </defs>
    <g clip-path="url(#p35c0bdbbd5)">
     <use style="fill:#9467bd;stroke:#9467bd;stroke-linejoin:miter;" x="95.042727" xlink:href="#m8b8186449c" y="218.422449"/>
     <use style="fill:#9467bd;stroke:#9467bd;stroke-linejoin:miter;" x="364.139318" xlink:href="#m8b8186449c" y="330.323657"/>
     <use style="fill:#9467bd;stroke:#9467bd;stroke-linejoin:miter;" x="417.958636" xlink:href="#m8b8186449c" y="327.397108"/>
     <use style="fill:#9467bd;stroke:#9467bd;stroke-linejoin:miter;" x="471.777955" xlink:href="#m8b8186449c" y="322.94504"/>
     <use style="fill:#9467bd;stroke:#9467bd;stroke-linejoin:miter;" x="525.597273" xlink:href="#m8b8186449c" y="327.500677"/>
    </g>
   </g>
   <g id="line2d_28">
    <path clip-path="url(#p35c0bdbbd5)" d="M 95.042727 218.449365 
L 364.139318 307.351751 
L 417.958636 270.628246 
L 471.777955 271.875078 
L 525.597273 271.146175 
" style="fill:none;stroke:#8c564b;stroke-linecap:square;stroke-width:1.5;"/>
    <defs>
     <path d="M -0 3 
L 3 -3 
L -3 -3 
z
" id="m2d2796ed5c" style="stroke:#8c564b;stroke-linejoin:miter;"/>
    </defs>
    <g clip-path="url(#p35c0bdbbd5)">
     <use style="fill:#8c564b;stroke:#8c564b;stroke-linejoin:miter;" x="95.042727" xlink:href="#m2d2796ed5c" y="218.449365"/>
     <use style="fill:#8c564b;stroke:#8c564b;stroke-linejoin:miter;" x="364.139318" xlink:href="#m2d2796ed5c" y="307.351751"/>
     <use style="fill:#8c564b;stroke:#8c564b;stroke-linejoin:miter;" x="417.958636" xlink:href="#m2d2796ed5c" y="270.628246"/>
     <use style="fill:#8c564b;stroke:#8c564b;stroke-linejoin:miter;" x="471.777955" xlink:href="#m2d2796ed5c" y="271.875078"/>
     <use style="fill:#8c564b;stroke:#8c564b;stroke-linejoin:miter;" x="525.597273" xlink:href="#m2d2796ed5c" y="271.146175"/>
    </g>
   </g>
   <g id="line2d_29">
    <path clip-path="url(#p35c0bdbbd5)" d="M 95.042727 164.770759 
L 364.139318 305.203415 
L 417.958636 314.47895 
L 471.777955 317.014364 
L 525.597273 314.775224 
" style="fill:none;stroke:#e377c2;stroke-linecap:square;stroke-width:1.5;"/>
    <defs>
     <path d="M -3 3 
L 3 3 
L 3 -3 
L -3 -3 
z
" id="m166dec22cf" style="stroke:#e377c2;stroke-linejoin:miter;"/>
    </defs>
    <g clip-path="url(#p35c0bdbbd5)">
     <use style="fill:#e377c2;stroke:#e377c2;stroke-linejoin:miter;" x="95.042727" xlink:href="#m166dec22cf" y="164.770759"/>
     <use style="fill:#e377c2;stroke:#e377c2;stroke-linejoin:miter;" x="364.139318" xlink:href="#m166dec22cf" y="305.203415"/>
     <use style="fill:#e377c2;stroke:#e377c2;stroke-linejoin:miter;" x="417.958636" xlink:href="#m166dec22cf" y="314.47895"/>
     <use style="fill:#e377c2;stroke:#e377c2;stroke-linejoin:miter;" x="471.777955" xlink:href="#m166dec22cf" y="317.014364"/>
     <use style="fill:#e377c2;stroke:#e377c2;stroke-linejoin:miter;" x="525.597273" xlink:href="#m166dec22cf" y="314.775224"/>
    </g>
   </g>
   <g id="line2d_30">
    <path clip-path="url(#p35c0bdbbd5)" d="M 95.042727 164.879411 
L 364.139318 290.414095 
L 417.958636 296.878143 
L 471.777955 299.161807 
L 525.597273 297.545253 
" style="fill:none;stroke:#7f7f7f;stroke-linecap:square;stroke-width:1.5;"/>
    <defs>
     <path d="M -3 3 
L 3 3 
L 3 -3 
L -3 -3 
z
" id="ma248a05aca" style="stroke:#7f7f7f;stroke-linejoin:miter;"/>
    </defs>
    <g clip-path="url(#p35c0bdbbd5)">
     <use style="fill:#7f7f7f;stroke:#7f7f7f;stroke-linejoin:miter;" x="95.042727" xlink:href="#ma248a05aca" y="164.879411"/>
     <use style="fill:#7f7f7f;stroke:#7f7f7f;stroke-linejoin:miter;" x="364.139318" xlink:href="#ma248a05aca" y="290.414095"/>
     <use style="fill:#7f7f7f;stroke:#7f7f7f;stroke-linejoin:miter;" x="417.958636" xlink:href="#ma248a05aca" y="296.878143"/>
     <use style="fill:#7f7f7f;stroke:#7f7f7f;stroke-linejoin:miter;" x="471.777955" xlink:href="#ma248a05aca" y="299.161807"/>
     <use style="fill:#7f7f7f;stroke:#7f7f7f;stroke-linejoin:miter;" x="525.597273" xlink:href="#ma248a05aca" y="297.545253"/>
    </g>
   </g>
   <g id="line2d_31">
    <path clip-path="url(#p35c0bdbbd5)" d="M 95.042727 164.832803 
L 364.139318 262.213159 
L 417.958636 244.028616 
L 471.777955 270.923467 
L 525.597273 256.890658 
" style="fill:none;stroke:#bcbd22;stroke-linecap:square;stroke-width:1.5;"/>
    <defs>
     <path d="M -3 3 
L 3 3 
L 3 -3 
L -3 -3 
z
" id="m988fb85a4f" style="stroke:#bcbd22;stroke-linejoin:miter;"/>
    </defs>
    <g clip-path="url(#p35c0bdbbd5)">
     <use style="fill:#bcbd22;stroke:#bcbd22;stroke-linejoin:miter;" x="95.042727" xlink:href="#m988fb85a4f" y="164.832803"/>
     <use style="fill:#bcbd22;stroke:#bcbd22;stroke-linejoin:miter;" x="364.139318" xlink:href="#m988fb85a4f" y="262.213159"/>
     <use style="fill:#bcbd22;stroke:#bcbd22;stroke-linejoin:miter;" x="417.958636" xlink:href="#m988fb85a4f" y="244.028616"/>
     <use style="fill:#bcbd22;stroke:#bcbd22;stroke-linejoin:miter;" x="471.777955" xlink:href="#m988fb85a4f" y="270.923467"/>
     <use style="fill:#bcbd22;stroke:#bcbd22;stroke-linejoin:miter;" x="525.597273" xlink:href="#m988fb85a4f" y="256.890658"/>
    </g>
   </g>
   <g id="line2d_32">
    <path clip-path="url(#p35c0bdbbd5)" d="M 95.042727 117.520892 
L 364.139318 260.76665 
L 417.958636 274.753229 
L 471.777955 284.731283 
L 525.597273 287.549653 
" style="fill:none;stroke:#17becf;stroke-linecap:square;stroke-width:1.5;"/>
    <defs>
     <path d="M -1.5 3 
L 0 1.5 
L 1.5 3 
L 3 1.5 
L 1.5 0 
L 3 -1.5 
L 1.5 -3 
L 0 -1.5 
L -1.5 -3 
L -3 -1.5 
L -1.5 0 
L -3 1.5 
z
" id="mdf7ea6156f" style="stroke:#17becf;stroke-linejoin:miter;"/>
    </defs>
    <g clip-path="url(#p35c0bdbbd5)">
     <use style="fill:#17becf;stroke:#17becf;stroke-linejoin:miter;" x="95.042727" xlink:href="#mdf7ea6156f" y="117.520892"/>
     <use style="fill:#17becf;stroke:#17becf;stroke-linejoin:miter;" x="364.139318" xlink:href="#mdf7ea6156f" y="260.76665"/>
     <use style="fill:#17becf;stroke:#17becf;stroke-linejoin:miter;" x="417.958636" xlink:href="#mdf7ea6156f" y="274.753229"/>
     <use style="fill:#17becf;stroke:#17becf;stroke-linejoin:miter;" x="471.777955" xlink:href="#mdf7ea6156f" y="284.731283"/>
     <use style="fill:#17becf;stroke:#17becf;stroke-linejoin:miter;" x="525.597273" xlink:href="#mdf7ea6156f" y="287.549653"/>
    </g>
   </g>
   <g id="line2d_33">
    <path clip-path="url(#p35c0bdbbd5)" d="M 95.042727 117.015107 
L 364.139318 243.919745 
L 417.958636 253.470668 
L 471.777955 257.942735 
L 525.597273 258.951609 
" style="fill:none;stroke:#1f77b4;stroke-linecap:square;stroke-width:1.5;"/>
    <defs>
     <path d="M -1.5 3 
L 0 1.5 
L 1.5 3 
L 3 1.5 
L 1.5 0 
L 3 -1.5 
L 1.5 -3 
L 0 -1.5 
L -1.5 -3 
L -3 -1.5 
L -1.5 0 
L -3 1.5 
z
" id="mc843b1fffa" style="stroke:#1f77b4;stroke-linejoin:miter;"/>
    </defs>
    <g clip-path="url(#p35c0bdbbd5)">
     <use style="fill:#1f77b4;stroke:#1f77b4;stroke-linejoin:miter;" x="95.042727" xlink:href="#mc843b1fffa" y="117.015107"/>
     <use style="fill:#1f77b4;stroke:#1f77b4;stroke-linejoin:miter;" x="364.139318" xlink:href="#mc843b1fffa" y="243.919745"/>
     <use style="fill:#1f77b4;stroke:#1f77b4;stroke-linejoin:miter;" x="417.958636" xlink:href="#mc843b1fffa" y="253.470668"/>
     <use style="fill:#1f77b4;stroke:#1f77b4;stroke-linejoin:miter;" x="471.777955" xlink:href="#mc843b1fffa" y="257.942735"/>
     <use style="fill:#1f77b4;stroke:#1f77b4;stroke-linejoin:miter;" x="525.597273" xlink:href="#mc843b1fffa" y="258.951609"/>
    </g>
   </g>
   <g id="line2d_34">
    <path clip-path="url(#p35c0bdbbd5)" d="M 95.042727 116.699356 
L 364.139318 231.000105 
L 417.958636 193.774125 
L 471.777955 193.365331 
L 525.597273 214.353058 
" style="fill:none;stroke:#ff7f0e;stroke-linecap:square;stroke-width:1.5;"/>
    <defs>
     <path d="M -1.5 3 
L 0 1.5 
L 1.5 3 
L 3 1.5 
L 1.5 0 
L 3 -1.5 
L 1.5 -3 
L 0 -1.5 
L -1.5 -3 
L -3 -1.5 
L -1.5 0 
L -3 1.5 
z
" id="me44ba61821" style="stroke:#ff7f0e;stroke-linejoin:miter;"/>
    </defs>
    <g clip-path="url(#p35c0bdbbd5)">
     <use style="fill:#ff7f0e;stroke:#ff7f0e;stroke-linejoin:miter;" x="95.042727" xlink:href="#me44ba61821" y="116.699356"/>
     <use style="fill:#ff7f0e;stroke:#ff7f0e;stroke-linejoin:miter;" x="364.139318" xlink:href="#me44ba61821" y="231.000105"/>
     <use style="fill:#ff7f0e;stroke:#ff7f0e;stroke-linejoin:miter;" x="417.958636" xlink:href="#me44ba61821" y="193.774125"/>
     <use style="fill:#ff7f0e;stroke:#ff7f0e;stroke-linejoin:miter;" x="471.777955" xlink:href="#me44ba61821" y="193.365331"/>
     <use style="fill:#ff7f0e;stroke:#ff7f0e;stroke-linejoin:miter;" x="525.597273" xlink:href="#me44ba61821" y="214.353058"/>
    </g>
   </g>
   <g id="line2d_35">
    <path clip-path="url(#p35c0bdbbd5)" d="M 95.042727 70.008956 
L 364.139318 207.175471 
L 417.958636 224.083709 
L 471.777955 240.192377 
L 525.597273 246.447586 
" style="fill:none;stroke:#2ca02c;stroke-linecap:square;stroke-width:1.5;"/>
    <defs>
     <path d="M -0 4.242641 
L 2.545584 0 
L 0 -4.242641 
L -2.545584 -0 
z
" id="me62d85cf56" style="stroke:#2ca02c;stroke-linejoin:miter;"/>
    </defs>
    <g clip-path="url(#p35c0bdbbd5)">
     <use style="fill:#2ca02c;stroke:#2ca02c;stroke-linejoin:miter;" x="95.042727" xlink:href="#me62d85cf56" y="70.008956"/>
     <use style="fill:#2ca02c;stroke:#2ca02c;stroke-linejoin:miter;" x="364.139318" xlink:href="#me62d85cf56" y="207.175471"/>
     <use style="fill:#2ca02c;stroke:#2ca02c;stroke-linejoin:miter;" x="417.958636" xlink:href="#me62d85cf56" y="224.083709"/>
     <use style="fill:#2ca02c;stroke:#2ca02c;stroke-linejoin:miter;" x="471.777955" xlink:href="#me62d85cf56" y="240.192377"/>
     <use style="fill:#2ca02c;stroke:#2ca02c;stroke-linejoin:miter;" x="525.597273" xlink:href="#me62d85cf56" y="246.447586"/>
    </g>
   </g>
   <g id="line2d_36">
    <path clip-path="url(#p35c0bdbbd5)" d="M 95.042727 69.468073 
L 364.139318 193.713882 
L 417.958636 203.840323 
L 471.777955 212.244728 
L 525.597273 214.67397 
" style="fill:none;stroke:#d62728;stroke-linecap:square;stroke-width:1.5;"/>
    <defs>
     <path d="M -0 4.242641 
L 2.545584 0 
L 0 -4.242641 
L -2.545584 -0 
z
" id="m056d283b07" style="stroke:#d62728;stroke-linejoin:miter;"/>
    </defs>
    <g clip-path="url(#p35c0bdbbd5)">
     <use style="fill:#d62728;stroke:#d62728;stroke-linejoin:miter;" x="95.042727" xlink:href="#m056d283b07" y="69.468073"/>
     <use style="fill:#d62728;stroke:#d62728;stroke-linejoin:miter;" x="364.139318" xlink:href="#m056d283b07" y="193.713882"/>
     <use style="fill:#d62728;stroke:#d62728;stroke-linejoin:miter;" x="417.958636" xlink:href="#m056d283b07" y="203.840323"/>
     <use style="fill:#d62728;stroke:#d62728;stroke-linejoin:miter;" x="471.777955" xlink:href="#m056d283b07" y="212.244728"/>
     <use style="fill:#d62728;stroke:#d62728;stroke-linejoin:miter;" x="525.597273" xlink:href="#m056d283b07" y="214.67397"/>
    </g>
   </g>
   <g id="line2d_37">
    <path clip-path="url(#p35c0bdbbd5)" d="M 95.042727 69.703134 
L 364.139318 180.847029 
L 417.958636 171.731249 
L 471.777955 200.908214 
L 525.597273 177.766755 
" style="fill:none;stroke:#9467bd;stroke-linecap:square;stroke-width:1.5;"/>
    <defs>
     <path d="M -0 4.242641 
L 2.545584 0 
L 0 -4.242641 
L -2.545584 -0 
z
" id="m783dddc3fc" style="stroke:#9467bd;stroke-linejoin:miter;"/>
    </defs>
    <g clip-path="url(#p35c0bdbbd5)">
     <use style="fill:#9467bd;stroke:#9467bd;stroke-linejoin:miter;" x="95.042727" xlink:href="#m783dddc3fc" y="69.703134"/>
     <use style="fill:#9467bd;stroke:#9467bd;stroke-linejoin:miter;" x="364.139318" xlink:href="#m783dddc3fc" y="180.847029"/>
     <use style="fill:#9467bd;stroke:#9467bd;stroke-linejoin:miter;" x="417.958636" xlink:href="#m783dddc3fc" y="171.731249"/>
     <use style="fill:#9467bd;stroke:#9467bd;stroke-linejoin:miter;" x="471.777955" xlink:href="#m783dddc3fc" y="200.908214"/>
     <use style="fill:#9467bd;stroke:#9467bd;stroke-linejoin:miter;" x="525.597273" xlink:href="#m783dddc3fc" y="177.766755"/>
    </g>
   </g>
   <g id="patch_3">
    <path d="M 73.515 384.856 
L 73.515 54.4496 
" style="fill:none;stroke:#000000;stroke-linecap:square;stroke-linejoin:miter;stroke-width:0.8;"/>
   </g>
   <g id="patch_4">
    <path d="M 547.125 384.856 
L 547.125 54.4496 
" style="fill:none;stroke:#000000;stroke-linecap:square;stroke-linejoin:miter;stroke-width:0.8;"/>
   </g>
   <g id="patch_5">
    <path d="M 73.515 384.856 
L 547.125 384.856 
" style="fill:none;stroke:#000000;stroke-linecap:square;stroke-linejoin:miter;stroke-width:0.8;"/>
   </g>
   <g id="patch_6">
    <path d="M 73.515 54.4496 
L 547.125 54.4496 
" style="fill:none;stroke:#000000;stroke-linecap:square;stroke-linejoin:miter;stroke-width:0.8;"/>
   </g>
   <g id="legend_1">
    <g id="patch_7">
     <path d="M 26.045125 50.487704 
L 547.233875 50.487704 
Q 548.833875 50.487704 548.833875 48.887704 
L 548.833875 13.792704 
Q 548.833875 12.192704 547.233875 12.192704 
L 26.045125 12.192704 
Q 24.445125 12.192704 24.445125 13.792704 
L 24.445125 48.887704 
Q 24.445125 50.487704 26.045125 50.487704 
z
" style="fill:#ffffff;opacity:0.8;stroke:#cccccc;stroke-linejoin:miter;"/>
    </g>
    <g id="line2d_38">
     <path d="M 27.645125 18.671454 
L 43.645125 18.671454 
" style="fill:none;stroke:#1f77b4;stroke-linecap:square;stroke-width:1.5;"/>
    </g>
    <g id="line2d_39">
     <g>
      <use style="fill:#1f77b4;stroke:#1f77b4;" x="35.645125" xlink:href="#mcadd05db63" y="18.671454"/>
     </g>
    </g>
    <g id="text_14">
     <!-- 256_p2p -->
     <g transform="translate(50.045125 21.471454)scale(0.08 -0.08)">
      <defs>
       <path d="M 33.015625 40.375 
Q 26.375 40.375 22.484375 35.828125 
Q 18.609375 31.296875 18.609375 23.390625 
Q 18.609375 15.53125 22.484375 10.953125 
Q 26.375 6.390625 33.015625 6.390625 
Q 39.65625 6.390625 43.53125 10.953125 
Q 47.40625 15.53125 47.40625 23.390625 
Q 47.40625 31.296875 43.53125 35.828125 
Q 39.65625 40.375 33.015625 40.375 
z
M 52.59375 71.296875 
L 52.59375 62.3125 
Q 48.875 64.0625 45.09375 64.984375 
Q 41.3125 65.921875 37.59375 65.921875 
Q 27.828125 65.921875 22.671875 59.328125 
Q 17.53125 52.734375 16.796875 39.40625 
Q 19.671875 43.65625 24.015625 45.921875 
Q 28.375 48.1875 33.59375 48.1875 
Q 44.578125 48.1875 50.953125 41.515625 
Q 57.328125 34.859375 57.328125 23.390625 
Q 57.328125 12.15625 50.6875 5.359375 
Q 44.046875 -1.421875 33.015625 -1.421875 
Q 20.359375 -1.421875 13.671875 8.265625 
Q 6.984375 17.96875 6.984375 36.375 
Q 6.984375 53.65625 15.1875 63.9375 
Q 23.390625 74.21875 37.203125 74.21875 
Q 40.921875 74.21875 44.703125 73.484375 
Q 48.484375 72.75 52.59375 71.296875 
z
" id="DejaVuSans-54"/>
       <path d="M 50.984375 -16.609375 
L 50.984375 -23.578125 
L -0.984375 -23.578125 
L -0.984375 -16.609375 
z
" id="DejaVuSans-95"/>
       <path d="M 18.109375 8.203125 
L 18.109375 -20.796875 
L 9.078125 -20.796875 
L 9.078125 54.6875 
L 18.109375 54.6875 
L 18.109375 46.390625 
Q 20.953125 51.265625 25.265625 53.625 
Q 29.59375 56 35.59375 56 
Q 45.5625 56 51.78125 48.09375 
Q 58.015625 40.1875 58.015625 27.296875 
Q 58.015625 14.40625 51.78125 6.484375 
Q 45.5625 -1.421875 35.59375 -1.421875 
Q 29.59375 -1.421875 25.265625 0.953125 
Q 20.953125 3.328125 18.109375 8.203125 
z
M 48.6875 27.296875 
Q 48.6875 37.203125 44.609375 42.84375 
Q 40.53125 48.484375 33.40625 48.484375 
Q 26.265625 48.484375 22.1875 42.84375 
Q 18.109375 37.203125 18.109375 27.296875 
Q 18.109375 17.390625 22.1875 11.75 
Q 26.265625 6.109375 33.40625 6.109375 
Q 40.53125 6.109375 44.609375 11.75 
Q 48.6875 17.390625 48.6875 27.296875 
z
" id="DejaVuSans-112"/>
      </defs>
      <use xlink:href="#DejaVuSans-50"/>
      <use x="63.623047" xlink:href="#DejaVuSans-53"/>
      <use x="127.246094" xlink:href="#DejaVuSans-54"/>
      <use x="190.869141" xlink:href="#DejaVuSans-95"/>
      <use x="240.869141" xlink:href="#DejaVuSans-112"/>
      <use x="304.345703" xlink:href="#DejaVuSans-50"/>
      <use x="367.96875" xlink:href="#DejaVuSans-112"/>
     </g>
    </g>
    <g id="line2d_40">
     <path d="M 27.645125 30.636454 
L 43.645125 30.636454 
" style="fill:none;stroke:#ff7f0e;stroke-linecap:square;stroke-width:1.5;"/>
    </g>
    <g id="line2d_41">
     <g>
      <use style="fill:#ff7f0e;stroke:#ff7f0e;" x="35.645125" xlink:href="#m3cf7631c00" y="30.636454"/>
     </g>
    </g>
    <g id="text_15">
     <!-- 256_p2p_seq_IO -->
     <g transform="translate(50.045125 33.436454)scale(0.08 -0.08)">
      <defs>
       <path d="M 14.796875 27.296875 
Q 14.796875 17.390625 18.875 11.75 
Q 22.953125 6.109375 30.078125 6.109375 
Q 37.203125 6.109375 41.296875 11.75 
Q 45.40625 17.390625 45.40625 27.296875 
Q 45.40625 37.203125 41.296875 42.84375 
Q 37.203125 48.484375 30.078125 48.484375 
Q 22.953125 48.484375 18.875 42.84375 
Q 14.796875 37.203125 14.796875 27.296875 
z
M 45.40625 8.203125 
Q 42.578125 3.328125 38.25 0.953125 
Q 33.9375 -1.421875 27.875 -1.421875 
Q 17.96875 -1.421875 11.734375 6.484375 
Q 5.515625 14.40625 5.515625 27.296875 
Q 5.515625 40.1875 11.734375 48.09375 
Q 17.96875 56 27.875 56 
Q 33.9375 56 38.25 53.625 
Q 42.578125 51.265625 45.40625 46.390625 
L 45.40625 54.6875 
L 54.390625 54.6875 
L 54.390625 -20.796875 
L 45.40625 -20.796875 
z
" id="DejaVuSans-113"/>
       <path d="M 39.40625 66.21875 
Q 28.65625 66.21875 22.328125 58.203125 
Q 16.015625 50.203125 16.015625 36.375 
Q 16.015625 22.609375 22.328125 14.59375 
Q 28.65625 6.59375 39.40625 6.59375 
Q 50.140625 6.59375 56.421875 14.59375 
Q 62.703125 22.609375 62.703125 36.375 
Q 62.703125 50.203125 56.421875 58.203125 
Q 50.140625 66.21875 39.40625 66.21875 
z
M 39.40625 74.21875 
Q 54.734375 74.21875 63.90625 63.9375 
Q 73.09375 53.65625 73.09375 36.375 
Q 73.09375 19.140625 63.90625 8.859375 
Q 54.734375 -1.421875 39.40625 -1.421875 
Q 24.03125 -1.421875 14.8125 8.828125 
Q 5.609375 19.09375 5.609375 36.375 
Q 5.609375 53.65625 14.8125 63.9375 
Q 24.03125 74.21875 39.40625 74.21875 
z
" id="DejaVuSans-79"/>
      </defs>
      <use xlink:href="#DejaVuSans-50"/>
      <use x="63.623047" xlink:href="#DejaVuSans-53"/>
      <use x="127.246094" xlink:href="#DejaVuSans-54"/>
      <use x="190.869141" xlink:href="#DejaVuSans-95"/>
      <use x="240.869141" xlink:href="#DejaVuSans-112"/>
      <use x="304.345703" xlink:href="#DejaVuSans-50"/>
      <use x="367.96875" xlink:href="#DejaVuSans-112"/>
      <use x="431.445312" xlink:href="#DejaVuSans-95"/>
      <use x="481.445312" xlink:href="#DejaVuSans-115"/>
      <use x="533.544922" xlink:href="#DejaVuSans-101"/>
      <use x="595.068359" xlink:href="#DejaVuSans-113"/>
      <use x="658.544922" xlink:href="#DejaVuSans-95"/>
      <use x="708.544922" xlink:href="#DejaVuSans-73"/>
      <use x="738.037109" xlink:href="#DejaVuSans-79"/>
     </g>
    </g>
    <g id="line2d_42">
     <path d="M 27.645125 42.601454 
L 43.645125 42.601454 
" style="fill:none;stroke:#2ca02c;stroke-linecap:square;stroke-width:1.5;"/>
    </g>
    <g id="line2d_43">
     <g>
      <use style="fill:#2ca02c;stroke:#2ca02c;" x="35.645125" xlink:href="#md8a1325119" y="42.601454"/>
     </g>
    </g>
    <g id="text_16">
     <!-- 256_p2p_par_IO -->
     <g transform="translate(50.045125 45.401454)scale(0.08 -0.08)">
      <use xlink:href="#DejaVuSans-50"/>
      <use x="63.623047" xlink:href="#DejaVuSans-53"/>
      <use x="127.246094" xlink:href="#DejaVuSans-54"/>
      <use x="190.869141" xlink:href="#DejaVuSans-95"/>
      <use x="240.869141" xlink:href="#DejaVuSans-112"/>
      <use x="304.345703" xlink:href="#DejaVuSans-50"/>
      <use x="367.96875" xlink:href="#DejaVuSans-112"/>
      <use x="431.445312" xlink:href="#DejaVuSans-95"/>
      <use x="481.445312" xlink:href="#DejaVuSans-112"/>
      <use x="544.921875" xlink:href="#DejaVuSans-97"/>
      <use x="606.201172" xlink:href="#DejaVuSans-114"/>
      <use x="647.314453" xlink:href="#DejaVuSans-95"/>
      <use x="697.314453" xlink:href="#DejaVuSans-73"/>
      <use x="726.806641" xlink:href="#DejaVuSans-79"/>
     </g>
    </g>
    <g id="line2d_44">
     <path d="M 131.388875 18.671454 
L 147.388875 18.671454 
" style="fill:none;stroke:#d62728;stroke-linecap:square;stroke-width:1.5;"/>
    </g>
    <g id="line2d_45">
     <g>
      <use style="fill:#d62728;stroke:#d62728;stroke-linejoin:miter;" x="139.388875" xlink:href="#m9428f134e3" y="18.671454"/>
     </g>
    </g>
    <g id="text_17">
     <!-- 512_p2p -->
     <g transform="translate(153.788875 21.471454)scale(0.08 -0.08)">
      <use xlink:href="#DejaVuSans-53"/>
      <use x="63.623047" xlink:href="#DejaVuSans-49"/>
      <use x="127.246094" xlink:href="#DejaVuSans-50"/>
      <use x="190.869141" xlink:href="#DejaVuSans-95"/>
      <use x="240.869141" xlink:href="#DejaVuSans-112"/>
      <use x="304.345703" xlink:href="#DejaVuSans-50"/>
      <use x="367.96875" xlink:href="#DejaVuSans-112"/>
     </g>
    </g>
    <g id="line2d_46">
     <path d="M 131.388875 30.636454 
L 147.388875 30.636454 
" style="fill:none;stroke:#9467bd;stroke-linecap:square;stroke-width:1.5;"/>
    </g>
    <g id="line2d_47">
     <g>
      <use style="fill:#9467bd;stroke:#9467bd;stroke-linejoin:miter;" x="139.388875" xlink:href="#m8b8186449c" y="30.636454"/>
     </g>
    </g>
    <g id="text_18">
     <!-- 512_p2p_seq_IO -->
     <g transform="translate(153.788875 33.436454)scale(0.08 -0.08)">
      <use xlink:href="#DejaVuSans-53"/>
      <use x="63.623047" xlink:href="#DejaVuSans-49"/>
      <use x="127.246094" xlink:href="#DejaVuSans-50"/>
      <use x="190.869141" xlink:href="#DejaVuSans-95"/>
      <use x="240.869141" xlink:href="#DejaVuSans-112"/>
      <use x="304.345703" xlink:href="#DejaVuSans-50"/>
      <use x="367.96875" xlink:href="#DejaVuSans-112"/>
      <use x="431.445312" xlink:href="#DejaVuSans-95"/>
      <use x="481.445312" xlink:href="#DejaVuSans-115"/>
      <use x="533.544922" xlink:href="#DejaVuSans-101"/>
      <use x="595.068359" xlink:href="#DejaVuSans-113"/>
      <use x="658.544922" xlink:href="#DejaVuSans-95"/>
      <use x="708.544922" xlink:href="#DejaVuSans-73"/>
      <use x="738.037109" xlink:href="#DejaVuSans-79"/>
     </g>
    </g>
    <g id="line2d_48">
     <path d="M 131.388875 42.601454 
L 147.388875 42.601454 
" style="fill:none;stroke:#8c564b;stroke-linecap:square;stroke-width:1.5;"/>
    </g>
    <g id="line2d_49">
     <g>
      <use style="fill:#8c564b;stroke:#8c564b;stroke-linejoin:miter;" x="139.388875" xlink:href="#m2d2796ed5c" y="42.601454"/>
     </g>
    </g>
    <g id="text_19">
     <!-- 512_p2p_par_IO -->
     <g transform="translate(153.788875 45.401454)scale(0.08 -0.08)">
      <use xlink:href="#DejaVuSans-53"/>
      <use x="63.623047" xlink:href="#DejaVuSans-49"/>
      <use x="127.246094" xlink:href="#DejaVuSans-50"/>
      <use x="190.869141" xlink:href="#DejaVuSans-95"/>
      <use x="240.869141" xlink:href="#DejaVuSans-112"/>
      <use x="304.345703" xlink:href="#DejaVuSans-50"/>
      <use x="367.96875" xlink:href="#DejaVuSans-112"/>
      <use x="431.445312" xlink:href="#DejaVuSans-95"/>
      <use x="481.445312" xlink:href="#DejaVuSans-112"/>
      <use x="544.921875" xlink:href="#DejaVuSans-97"/>
      <use x="606.201172" xlink:href="#DejaVuSans-114"/>
      <use x="647.314453" xlink:href="#DejaVuSans-95"/>
      <use x="697.314453" xlink:href="#DejaVuSans-73"/>
      <use x="726.806641" xlink:href="#DejaVuSans-79"/>
     </g>
    </g>
    <g id="line2d_50">
     <path d="M 235.132625 18.671454 
L 251.132625 18.671454 
" style="fill:none;stroke:#e377c2;stroke-linecap:square;stroke-width:1.5;"/>
    </g>
    <g id="line2d_51">
     <g>
      <use style="fill:#e377c2;stroke:#e377c2;stroke-linejoin:miter;" x="243.132625" xlink:href="#m166dec22cf" y="18.671454"/>
     </g>
    </g>
    <g id="text_20">
     <!-- 1024_p2p -->
     <g transform="translate(257.532625 21.471454)scale(0.08 -0.08)">
      <defs>
       <path d="M 31.78125 66.40625 
Q 24.171875 66.40625 20.328125 58.90625 
Q 16.5 51.421875 16.5 36.375 
Q 16.5 21.390625 20.328125 13.890625 
Q 24.171875 6.390625 31.78125 6.390625 
Q 39.453125 6.390625 43.28125 13.890625 
Q 47.125 21.390625 47.125 36.375 
Q 47.125 51.421875 43.28125 58.90625 
Q 39.453125 66.40625 31.78125 66.40625 
z
M 31.78125 74.21875 
Q 44.046875 74.21875 50.515625 64.515625 
Q 56.984375 54.828125 56.984375 36.375 
Q 56.984375 17.96875 50.515625 8.265625 
Q 44.046875 -1.421875 31.78125 -1.421875 
Q 19.53125 -1.421875 13.0625 8.265625 
Q 6.59375 17.96875 6.59375 36.375 
Q 6.59375 54.828125 13.0625 64.515625 
Q 19.53125 74.21875 31.78125 74.21875 
z
" id="DejaVuSans-48"/>
       <path d="M 37.796875 64.3125 
L 12.890625 25.390625 
L 37.796875 25.390625 
z
M 35.203125 72.90625 
L 47.609375 72.90625 
L 47.609375 25.390625 
L 58.015625 25.390625 
L 58.015625 17.1875 
L 47.609375 17.1875 
L 47.609375 0 
L 37.796875 0 
L 37.796875 17.1875 
L 4.890625 17.1875 
L 4.890625 26.703125 
z
" id="DejaVuSans-52"/>
      </defs>
      <use xlink:href="#DejaVuSans-49"/>
      <use x="63.623047" xlink:href="#DejaVuSans-48"/>
      <use x="127.246094" xlink:href="#DejaVuSans-50"/>
      <use x="190.869141" xlink:href="#DejaVuSans-52"/>
      <use x="254.492188" xlink:href="#DejaVuSans-95"/>
      <use x="304.492188" xlink:href="#DejaVuSans-112"/>
      <use x="367.96875" xlink:href="#DejaVuSans-50"/>
      <use x="431.591797" xlink:href="#DejaVuSans-112"/>
     </g>
    </g>
    <g id="line2d_52">
     <path d="M 235.132625 30.636454 
L 251.132625 30.636454 
" style="fill:none;stroke:#7f7f7f;stroke-linecap:square;stroke-width:1.5;"/>
    </g>
    <g id="line2d_53">
     <g>
      <use style="fill:#7f7f7f;stroke:#7f7f7f;stroke-linejoin:miter;" x="243.132625" xlink:href="#ma248a05aca" y="30.636454"/>
     </g>
    </g>
    <g id="text_21">
     <!-- 1024_p2p_seq_IO -->
     <g transform="translate(257.532625 33.436454)scale(0.08 -0.08)">
      <use xlink:href="#DejaVuSans-49"/>
      <use x="63.623047" xlink:href="#DejaVuSans-48"/>
      <use x="127.246094" xlink:href="#DejaVuSans-50"/>
      <use x="190.869141" xlink:href="#DejaVuSans-52"/>
      <use x="254.492188" xlink:href="#DejaVuSans-95"/>
      <use x="304.492188" xlink:href="#DejaVuSans-112"/>
      <use x="367.96875" xlink:href="#DejaVuSans-50"/>
      <use x="431.591797" xlink:href="#DejaVuSans-112"/>
      <use x="495.068359" xlink:href="#DejaVuSans-95"/>
      <use x="545.068359" xlink:href="#DejaVuSans-115"/>
      <use x="597.167969" xlink:href="#DejaVuSans-101"/>
      <use x="658.691406" xlink:href="#DejaVuSans-113"/>
      <use x="722.167969" xlink:href="#DejaVuSans-95"/>
      <use x="772.167969" xlink:href="#DejaVuSans-73"/>
      <use x="801.660156" xlink:href="#DejaVuSans-79"/>
     </g>
    </g>
    <g id="line2d_54">
     <path d="M 235.132625 42.601454 
L 251.132625 42.601454 
" style="fill:none;stroke:#bcbd22;stroke-linecap:square;stroke-width:1.5;"/>
    </g>
    <g id="line2d_55">
     <g>
      <use style="fill:#bcbd22;stroke:#bcbd22;stroke-linejoin:miter;" x="243.132625" xlink:href="#m988fb85a4f" y="42.601454"/>
     </g>
    </g>
    <g id="text_22">
     <!-- 1024_p2p_par_IO -->
     <g transform="translate(257.532625 45.401454)scale(0.08 -0.08)">
      <use xlink:href="#DejaVuSans-49"/>
      <use x="63.623047" xlink:href="#DejaVuSans-48"/>
      <use x="127.246094" xlink:href="#DejaVuSans-50"/>
      <use x="190.869141" xlink:href="#DejaVuSans-52"/>
      <use x="254.492188" xlink:href="#DejaVuSans-95"/>
      <use x="304.492188" xlink:href="#DejaVuSans-112"/>
      <use x="367.96875" xlink:href="#DejaVuSans-50"/>
      <use x="431.591797" xlink:href="#DejaVuSans-112"/>
      <use x="495.068359" xlink:href="#DejaVuSans-95"/>
      <use x="545.068359" xlink:href="#DejaVuSans-112"/>
      <use x="608.544922" xlink:href="#DejaVuSans-97"/>
      <use x="669.824219" xlink:href="#DejaVuSans-114"/>
      <use x="710.9375" xlink:href="#DejaVuSans-95"/>
      <use x="760.9375" xlink:href="#DejaVuSans-73"/>
      <use x="790.429688" xlink:href="#DejaVuSans-79"/>
     </g>
    </g>
    <g id="line2d_56">
     <path d="M 343.966375 18.671454 
L 359.966375 18.671454 
" style="fill:none;stroke:#17becf;stroke-linecap:square;stroke-width:1.5;"/>
    </g>
    <g id="line2d_57">
     <g>
      <use style="fill:#17becf;stroke:#17becf;stroke-linejoin:miter;" x="351.966375" xlink:href="#mdf7ea6156f" y="18.671454"/>
     </g>
    </g>
    <g id="text_23">
     <!-- 2048_p2p -->
     <g transform="translate(366.366375 21.471454)scale(0.08 -0.08)">
      <defs>
       <path d="M 31.78125 34.625 
Q 24.75 34.625 20.71875 30.859375 
Q 16.703125 27.09375 16.703125 20.515625 
Q 16.703125 13.921875 20.71875 10.15625 
Q 24.75 6.390625 31.78125 6.390625 
Q 38.8125 6.390625 42.859375 10.171875 
Q 46.921875 13.96875 46.921875 20.515625 
Q 46.921875 27.09375 42.890625 30.859375 
Q 38.875 34.625 31.78125 34.625 
z
M 21.921875 38.8125 
Q 15.578125 40.375 12.03125 44.71875 
Q 8.5 49.078125 8.5 55.328125 
Q 8.5 64.0625 14.71875 69.140625 
Q 20.953125 74.21875 31.78125 74.21875 
Q 42.671875 74.21875 48.875 69.140625 
Q 55.078125 64.0625 55.078125 55.328125 
Q 55.078125 49.078125 51.53125 44.71875 
Q 48 40.375 41.703125 38.8125 
Q 48.828125 37.15625 52.796875 32.3125 
Q 56.78125 27.484375 56.78125 20.515625 
Q 56.78125 9.90625 50.3125 4.234375 
Q 43.84375 -1.421875 31.78125 -1.421875 
Q 19.734375 -1.421875 13.25 4.234375 
Q 6.78125 9.90625 6.78125 20.515625 
Q 6.78125 27.484375 10.78125 32.3125 
Q 14.796875 37.15625 21.921875 38.8125 
z
M 18.3125 54.390625 
Q 18.3125 48.734375 21.84375 45.5625 
Q 25.390625 42.390625 31.78125 42.390625 
Q 38.140625 42.390625 41.71875 45.5625 
Q 45.3125 48.734375 45.3125 54.390625 
Q 45.3125 60.0625 41.71875 63.234375 
Q 38.140625 66.40625 31.78125 66.40625 
Q 25.390625 66.40625 21.84375 63.234375 
Q 18.3125 60.0625 18.3125 54.390625 
z
" id="DejaVuSans-56"/>
      </defs>
      <use xlink:href="#DejaVuSans-50"/>
      <use x="63.623047" xlink:href="#DejaVuSans-48"/>
      <use x="127.246094" xlink:href="#DejaVuSans-52"/>
      <use x="190.869141" xlink:href="#DejaVuSans-56"/>
      <use x="254.492188" xlink:href="#DejaVuSans-95"/>
      <use x="304.492188" xlink:href="#DejaVuSans-112"/>
      <use x="367.96875" xlink:href="#DejaVuSans-50"/>
      <use x="431.591797" xlink:href="#DejaVuSans-112"/>
     </g>
    </g>
    <g id="line2d_58">
     <path d="M 343.966375 30.636454 
L 359.966375 30.636454 
" style="fill:none;stroke:#1f77b4;stroke-linecap:square;stroke-width:1.5;"/>
    </g>
    <g id="line2d_59">
     <g>
      <use style="fill:#1f77b4;stroke:#1f77b4;stroke-linejoin:miter;" x="351.966375" xlink:href="#mc843b1fffa" y="30.636454"/>
     </g>
    </g>
    <g id="text_24">
     <!-- 2048_p2p_seq_IO -->
     <g transform="translate(366.366375 33.436454)scale(0.08 -0.08)">
      <use xlink:href="#DejaVuSans-50"/>
      <use x="63.623047" xlink:href="#DejaVuSans-48"/>
      <use x="127.246094" xlink:href="#DejaVuSans-52"/>
      <use x="190.869141" xlink:href="#DejaVuSans-56"/>
      <use x="254.492188" xlink:href="#DejaVuSans-95"/>
      <use x="304.492188" xlink:href="#DejaVuSans-112"/>
      <use x="367.96875" xlink:href="#DejaVuSans-50"/>
      <use x="431.591797" xlink:href="#DejaVuSans-112"/>
      <use x="495.068359" xlink:href="#DejaVuSans-95"/>
      <use x="545.068359" xlink:href="#DejaVuSans-115"/>
      <use x="597.167969" xlink:href="#DejaVuSans-101"/>
      <use x="658.691406" xlink:href="#DejaVuSans-113"/>
      <use x="722.167969" xlink:href="#DejaVuSans-95"/>
      <use x="772.167969" xlink:href="#DejaVuSans-73"/>
      <use x="801.660156" xlink:href="#DejaVuSans-79"/>
     </g>
    </g>
    <g id="line2d_60">
     <path d="M 343.966375 42.601454 
L 359.966375 42.601454 
" style="fill:none;stroke:#ff7f0e;stroke-linecap:square;stroke-width:1.5;"/>
    </g>
    <g id="line2d_61">
     <g>
      <use style="fill:#ff7f0e;stroke:#ff7f0e;stroke-linejoin:miter;" x="351.966375" xlink:href="#me44ba61821" y="42.601454"/>
     </g>
    </g>
    <g id="text_25">
     <!-- 2048_p2p_par_IO -->
     <g transform="translate(366.366375 45.401454)scale(0.08 -0.08)">
      <use xlink:href="#DejaVuSans-50"/>
      <use x="63.623047" xlink:href="#DejaVuSans-48"/>
      <use x="127.246094" xlink:href="#DejaVuSans-52"/>
      <use x="190.869141" xlink:href="#DejaVuSans-56"/>
      <use x="254.492188" xlink:href="#DejaVuSans-95"/>
      <use x="304.492188" xlink:href="#DejaVuSans-112"/>
      <use x="367.96875" xlink:href="#DejaVuSans-50"/>
      <use x="431.591797" xlink:href="#DejaVuSans-112"/>
      <use x="495.068359" xlink:href="#DejaVuSans-95"/>
      <use x="545.068359" xlink:href="#DejaVuSans-112"/>
      <use x="608.544922" xlink:href="#DejaVuSans-97"/>
      <use x="669.824219" xlink:href="#DejaVuSans-114"/>
      <use x="710.9375" xlink:href="#DejaVuSans-95"/>
      <use x="760.9375" xlink:href="#DejaVuSans-73"/>
      <use x="790.429688" xlink:href="#DejaVuSans-79"/>
     </g>
    </g>
    <g id="line2d_62">
     <path d="M 452.800125 18.671454 
L 468.800125 18.671454 
" style="fill:none;stroke:#2ca02c;stroke-linecap:square;stroke-width:1.5;"/>
    </g>
    <g id="line2d_63">
     <g>
      <use style="fill:#2ca02c;stroke:#2ca02c;stroke-linejoin:miter;" x="460.800125" xlink:href="#me62d85cf56" y="18.671454"/>
     </g>
    </g>
    <g id="text_26">
     <!-- 4096_p2p -->
     <g transform="translate(475.200125 21.471454)scale(0.08 -0.08)">
      <use xlink:href="#DejaVuSans-52"/>
      <use x="63.623047" xlink:href="#DejaVuSans-48"/>
      <use x="127.246094" xlink:href="#DejaVuSans-57"/>
      <use x="190.869141" xlink:href="#DejaVuSans-54"/>
      <use x="254.492188" xlink:href="#DejaVuSans-95"/>
      <use x="304.492188" xlink:href="#DejaVuSans-112"/>
      <use x="367.96875" xlink:href="#DejaVuSans-50"/>
      <use x="431.591797" xlink:href="#DejaVuSans-112"/>
     </g>
    </g>
    <g id="line2d_64">
     <path d="M 452.800125 30.636454 
L 468.800125 30.636454 
" style="fill:none;stroke:#d62728;stroke-linecap:square;stroke-width:1.5;"/>
    </g>
    <g id="line2d_65">
     <g>
      <use style="fill:#d62728;stroke:#d62728;stroke-linejoin:miter;" x="460.800125" xlink:href="#m056d283b07" y="30.636454"/>
     </g>
    </g>
    <g id="text_27">
     <!-- 4096_p2p_seq_IO -->
     <g transform="translate(475.200125 33.436454)scale(0.08 -0.08)">
      <use xlink:href="#DejaVuSans-52"/>
      <use x="63.623047" xlink:href="#DejaVuSans-48"/>
      <use x="127.246094" xlink:href="#DejaVuSans-57"/>
      <use x="190.869141" xlink:href="#DejaVuSans-54"/>
      <use x="254.492188" xlink:href="#DejaVuSans-95"/>
      <use x="304.492188" xlink:href="#DejaVuSans-112"/>
      <use x="367.96875" xlink:href="#DejaVuSans-50"/>
      <use x="431.591797" xlink:href="#DejaVuSans-112"/>
      <use x="495.068359" xlink:href="#DejaVuSans-95"/>
      <use x="545.068359" xlink:href="#DejaVuSans-115"/>
      <use x="597.167969" xlink:href="#DejaVuSans-101"/>
      <use x="658.691406" xlink:href="#DejaVuSans-113"/>
      <use x="722.167969" xlink:href="#DejaVuSans-95"/>
      <use x="772.167969" xlink:href="#DejaVuSans-73"/>
      <use x="801.660156" xlink:href="#DejaVuSans-79"/>
     </g>
    </g>
    <g id="line2d_66">
     <path d="M 452.800125 42.601454 
L 468.800125 42.601454 
" style="fill:none;stroke:#9467bd;stroke-linecap:square;stroke-width:1.5;"/>
    </g>
    <g id="line2d_67">
     <g>
      <use style="fill:#9467bd;stroke:#9467bd;stroke-linejoin:miter;" x="460.800125" xlink:href="#m783dddc3fc" y="42.601454"/>
     </g>
    </g>
    <g id="text_28">
     <!-- 4096_p2p_par_IO -->
     <g transform="translate(475.200125 45.401454)scale(0.08 -0.08)">
      <use xlink:href="#DejaVuSans-52"/>
      <use x="63.623047" xlink:href="#DejaVuSans-48"/>
      <use x="127.246094" xlink:href="#DejaVuSans-57"/>
      <use x="190.869141" xlink:href="#DejaVuSans-54"/>
      <use x="254.492188" xlink:href="#DejaVuSans-95"/>
      <use x="304.492188" xlink:href="#DejaVuSans-112"/>
      <use x="367.96875" xlink:href="#DejaVuSans-50"/>
      <use x="431.591797" xlink:href="#DejaVuSans-112"/>
      <use x="495.068359" xlink:href="#DejaVuSans-95"/>
      <use x="545.068359" xlink:href="#DejaVuSans-112"/>
      <use x="608.544922" xlink:href="#DejaVuSans-97"/>
      <use x="669.824219" xlink:href="#DejaVuSans-114"/>
      <use x="710.9375" xlink:href="#DejaVuSans-95"/>
      <use x="760.9375" xlink:href="#DejaVuSans-73"/>
      <use x="790.429688" xlink:href="#DejaVuSans-79"/>
     </g>
    </g>
   </g>
  </g>
 </g>
 <defs>
  <clipPath id="p35c0bdbbd5">
   <rect height="330.4064" width="473.61" x="73.515" y="54.4496"/>
  </clipPath>
 </defs>
</svg>
