<?xml version="1.0" encoding="utf-8" standalone="no"?>
<!DOCTYPE svg PUBLIC "-//W3C//DTD SVG 1.1//EN"
  "http://www.w3.org/Graphics/SVG/1.1/DTD/svg11.dtd">
<!-- Created with matplotlib (https://matplotlib.org/) -->
<svg height="432pt" version="1.1" viewBox="0 0 576 432" width="576pt" xmlns="http://www.w3.org/2000/svg" xmlns:xlink="http://www.w3.org/1999/xlink">
 <metadata>
  <rdf:RDF xmlns:cc="http://creativecommons.org/ns#" xmlns:dc="http://purl.org/dc/elements/1.1/" xmlns:rdf="http://www.w3.org/1999/02/22-rdf-syntax-ns#">
   <cc:Work>
    <dc:type rdf:resource="http://purl.org/dc/dcmitype/StillImage"/>
    <dc:date>2024-04-22T07:39:09.666993</dc:date>
    <dc:format>image/svg+xml</dc:format>
    <dc:creator>
     <cc:Agent>
      <dc:title>Matplotlib v3.3.4, https://matplotlib.org/</dc:title>
     </cc:Agent>
    </dc:creator>
   </cc:Work>
  </rdf:RDF>
 </metadata>
 <defs>
  <style type="text/css">*{stroke-linecap:butt;stroke-linejoin:round;}</style>
 </defs>
 <g id="figure_1">
  <g id="patch_1">
   <path d="M 0 432 
L 576 432 
L 576 0 
L 0 0 
z
" style="fill:#ffffff;"/>
  </g>
  <g id="axes_1">
   <g id="patch_2">
    <path d="M 75.315 384.856 
L 545.325 384.856 
L 545.325 54.4496 
L 75.315 54.4496 
z
" style="fill:#ffffff;"/>
   </g>
   <g id="matplotlib.axis_1">
    <g id="xtick_1">
     <g id="line2d_1">
      <path clip-path="url(#p1b95e6ff4e)" d="M 150.089318 384.856 
L 150.089318 54.4496 
" style="fill:none;stroke:#b0b0b0;stroke-linecap:square;stroke-width:0.8;"/>
     </g>
     <g id="line2d_2">
      <defs>
       <path d="M 0 0 
L 0 3.5 
" id="m6032d0a8f3" style="stroke:#000000;stroke-width:0.8;"/>
      </defs>
      <g>
       <use style="stroke:#000000;stroke-width:0.8;" x="150.089318" xlink:href="#m6032d0a8f3" y="384.856"/>
      </g>
     </g>
     <g id="text_1">
      <!-- $\mathdefault{2^{1}}$ -->
      <g transform="translate(143.929318 400.214281)scale(0.11 -0.11)">
       <defs>
        <path d="M 19.1875 8.296875 
L 53.609375 8.296875 
L 53.609375 0 
L 7.328125 0 
L 7.328125 8.296875 
Q 12.9375 14.109375 22.625 23.890625 
Q 32.328125 33.6875 34.8125 36.53125 
Q 39.546875 41.84375 41.421875 45.53125 
Q 43.3125 49.21875 43.3125 52.78125 
Q 43.3125 58.59375 39.234375 62.25 
Q 35.15625 65.921875 28.609375 65.921875 
Q 23.96875 65.921875 18.8125 64.3125 
Q 13.671875 62.703125 7.8125 59.421875 
L 7.8125 69.390625 
Q 13.765625 71.78125 18.9375 73 
Q 24.125 74.21875 28.421875 74.21875 
Q 39.75 74.21875 46.484375 68.546875 
Q 53.21875 62.890625 53.21875 53.421875 
Q 53.21875 48.921875 51.53125 44.890625 
Q 49.859375 40.875 45.40625 35.40625 
Q 44.1875 33.984375 37.640625 27.21875 
Q 31.109375 20.453125 19.1875 8.296875 
z
" id="DejaVuSans-50"/>
        <path d="M 12.40625 8.296875 
L 28.515625 8.296875 
L 28.515625 63.921875 
L 10.984375 60.40625 
L 10.984375 69.390625 
L 28.421875 72.90625 
L 38.28125 72.90625 
L 38.28125 8.296875 
L 54.390625 8.296875 
L 54.390625 0 
L 12.40625 0 
z
" id="DejaVuSans-49"/>
       </defs>
       <use transform="translate(0 0.684375)" xlink:href="#DejaVuSans-50"/>
       <use transform="translate(64.580078 38.965625)scale(0.7)" xlink:href="#DejaVuSans-49"/>
      </g>
     </g>
    </g>
    <g id="xtick_2">
     <g id="line2d_3">
      <path clip-path="url(#p1b95e6ff4e)" d="M 256.909773 384.856 
L 256.909773 54.4496 
" style="fill:none;stroke:#b0b0b0;stroke-linecap:square;stroke-width:0.8;"/>
     </g>
     <g id="line2d_4">
      <g>
       <use style="stroke:#000000;stroke-width:0.8;" x="256.909773" xlink:href="#m6032d0a8f3" y="384.856"/>
      </g>
     </g>
     <g id="text_2">
      <!-- $\mathdefault{2^{3}}$ -->
      <g transform="translate(250.749773 400.214281)scale(0.11 -0.11)">
       <defs>
        <path d="M 40.578125 39.3125 
Q 47.65625 37.796875 51.625 33 
Q 55.609375 28.21875 55.609375 21.1875 
Q 55.609375 10.40625 48.1875 4.484375 
Q 40.765625 -1.421875 27.09375 -1.421875 
Q 22.515625 -1.421875 17.65625 -0.515625 
Q 12.796875 0.390625 7.625 2.203125 
L 7.625 11.71875 
Q 11.71875 9.328125 16.59375 8.109375 
Q 21.484375 6.890625 26.8125 6.890625 
Q 36.078125 6.890625 40.9375 10.546875 
Q 45.796875 14.203125 45.796875 21.1875 
Q 45.796875 27.640625 41.28125 31.265625 
Q 36.765625 34.90625 28.71875 34.90625 
L 20.21875 34.90625 
L 20.21875 43.015625 
L 29.109375 43.015625 
Q 36.375 43.015625 40.234375 45.921875 
Q 44.09375 48.828125 44.09375 54.296875 
Q 44.09375 59.90625 40.109375 62.90625 
Q 36.140625 65.921875 28.71875 65.921875 
Q 24.65625 65.921875 20.015625 65.03125 
Q 15.375 64.15625 9.8125 62.3125 
L 9.8125 71.09375 
Q 15.4375 72.65625 20.34375 73.4375 
Q 25.25 74.21875 29.59375 74.21875 
Q 40.828125 74.21875 47.359375 69.109375 
Q 53.90625 64.015625 53.90625 55.328125 
Q 53.90625 49.265625 50.4375 45.09375 
Q 46.96875 40.921875 40.578125 39.3125 
z
" id="DejaVuSans-51"/>
       </defs>
       <use transform="translate(0 0.765625)" xlink:href="#DejaVuSans-50"/>
       <use transform="translate(64.580078 39.046875)scale(0.7)" xlink:href="#DejaVuSans-51"/>
      </g>
     </g>
    </g>
    <g id="xtick_3">
     <g id="line2d_5">
      <path clip-path="url(#p1b95e6ff4e)" d="M 363.730227 384.856 
L 363.730227 54.4496 
" style="fill:none;stroke:#b0b0b0;stroke-linecap:square;stroke-width:0.8;"/>
     </g>
     <g id="line2d_6">
      <g>
       <use style="stroke:#000000;stroke-width:0.8;" x="363.730227" xlink:href="#m6032d0a8f3" y="384.856"/>
      </g>
     </g>
     <g id="text_3">
      <!-- $\mathdefault{2^{5}}$ -->
      <g transform="translate(357.570227 400.214281)scale(0.11 -0.11)">
       <defs>
        <path d="M 10.796875 72.90625 
L 49.515625 72.90625 
L 49.515625 64.59375 
L 19.828125 64.59375 
L 19.828125 46.734375 
Q 21.96875 47.46875 24.109375 47.828125 
Q 26.265625 48.1875 28.421875 48.1875 
Q 40.625 48.1875 47.75 41.5 
Q 54.890625 34.8125 54.890625 23.390625 
Q 54.890625 11.625 47.5625 5.09375 
Q 40.234375 -1.421875 26.90625 -1.421875 
Q 22.3125 -1.421875 17.546875 -0.640625 
Q 12.796875 0.140625 7.71875 1.703125 
L 7.71875 11.625 
Q 12.109375 9.234375 16.796875 8.0625 
Q 21.484375 6.890625 26.703125 6.890625 
Q 35.15625 6.890625 40.078125 11.328125 
Q 45.015625 15.765625 45.015625 23.390625 
Q 45.015625 31 40.078125 35.4375 
Q 35.15625 39.890625 26.703125 39.890625 
Q 22.75 39.890625 18.8125 39.015625 
Q 14.890625 38.140625 10.796875 36.28125 
z
" id="DejaVuSans-53"/>
       </defs>
       <use transform="translate(0 0.684375)" xlink:href="#DejaVuSans-50"/>
       <use transform="translate(64.580078 38.965625)scale(0.7)" xlink:href="#DejaVuSans-53"/>
      </g>
     </g>
    </g>
    <g id="xtick_4">
     <g id="line2d_7">
      <path clip-path="url(#p1b95e6ff4e)" d="M 470.550682 384.856 
L 470.550682 54.4496 
" style="fill:none;stroke:#b0b0b0;stroke-linecap:square;stroke-width:0.8;"/>
     </g>
     <g id="line2d_8">
      <g>
       <use style="stroke:#000000;stroke-width:0.8;" x="470.550682" xlink:href="#m6032d0a8f3" y="384.856"/>
      </g>
     </g>
     <g id="text_4">
      <!-- $\mathdefault{2^{7}}$ -->
      <g transform="translate(464.390682 400.214281)scale(0.11 -0.11)">
       <defs>
        <path d="M 8.203125 72.90625 
L 55.078125 72.90625 
L 55.078125 68.703125 
L 28.609375 0 
L 18.3125 0 
L 43.21875 64.59375 
L 8.203125 64.59375 
z
" id="DejaVuSans-55"/>
       </defs>
       <use transform="translate(0 0.684375)" xlink:href="#DejaVuSans-50"/>
       <use transform="translate(64.580078 38.965625)scale(0.7)" xlink:href="#DejaVuSans-55"/>
      </g>
     </g>
    </g>
    <g id="text_5">
     <!-- Number of cores -->
     <g transform="translate(264.651953 414.860219)scale(0.11 -0.11)">
      <defs>
       <path d="M 9.8125 72.90625 
L 23.09375 72.90625 
L 55.421875 11.921875 
L 55.421875 72.90625 
L 64.984375 72.90625 
L 64.984375 0 
L 51.703125 0 
L 19.390625 60.984375 
L 19.390625 0 
L 9.8125 0 
z
" id="DejaVuSans-78"/>
       <path d="M 8.5 21.578125 
L 8.5 54.6875 
L 17.484375 54.6875 
L 17.484375 21.921875 
Q 17.484375 14.15625 20.5 10.265625 
Q 23.53125 6.390625 29.59375 6.390625 
Q 36.859375 6.390625 41.078125 11.03125 
Q 45.3125 15.671875 45.3125 23.6875 
L 45.3125 54.6875 
L 54.296875 54.6875 
L 54.296875 0 
L 45.3125 0 
L 45.3125 8.40625 
Q 42.046875 3.421875 37.71875 1 
Q 33.40625 -1.421875 27.6875 -1.421875 
Q 18.265625 -1.421875 13.375 4.4375 
Q 8.5 10.296875 8.5 21.578125 
z
M 31.109375 56 
z
" id="DejaVuSans-117"/>
       <path d="M 52 44.1875 
Q 55.375 50.25 60.0625 53.125 
Q 64.75 56 71.09375 56 
Q 79.640625 56 84.28125 50.015625 
Q 88.921875 44.046875 88.921875 33.015625 
L 88.921875 0 
L 79.890625 0 
L 79.890625 32.71875 
Q 79.890625 40.578125 77.09375 44.375 
Q 74.3125 48.1875 68.609375 48.1875 
Q 61.625 48.1875 57.5625 43.546875 
Q 53.515625 38.921875 53.515625 30.90625 
L 53.515625 0 
L 44.484375 0 
L 44.484375 32.71875 
Q 44.484375 40.625 41.703125 44.40625 
Q 38.921875 48.1875 33.109375 48.1875 
Q 26.21875 48.1875 22.15625 43.53125 
Q 18.109375 38.875 18.109375 30.90625 
L 18.109375 0 
L 9.078125 0 
L 9.078125 54.6875 
L 18.109375 54.6875 
L 18.109375 46.1875 
Q 21.1875 51.21875 25.484375 53.609375 
Q 29.78125 56 35.6875 56 
Q 41.65625 56 45.828125 52.96875 
Q 50 49.953125 52 44.1875 
z
" id="DejaVuSans-109"/>
       <path d="M 48.6875 27.296875 
Q 48.6875 37.203125 44.609375 42.84375 
Q 40.53125 48.484375 33.40625 48.484375 
Q 26.265625 48.484375 22.1875 42.84375 
Q 18.109375 37.203125 18.109375 27.296875 
Q 18.109375 17.390625 22.1875 11.75 
Q 26.265625 6.109375 33.40625 6.109375 
Q 40.53125 6.109375 44.609375 11.75 
Q 48.6875 17.390625 48.6875 27.296875 
z
M 18.109375 46.390625 
Q 20.953125 51.265625 25.265625 53.625 
Q 29.59375 56 35.59375 56 
Q 45.5625 56 51.78125 48.09375 
Q 58.015625 40.1875 58.015625 27.296875 
Q 58.015625 14.40625 51.78125 6.484375 
Q 45.5625 -1.421875 35.59375 -1.421875 
Q 29.59375 -1.421875 25.265625 0.953125 
Q 20.953125 3.328125 18.109375 8.203125 
L 18.109375 0 
L 9.078125 0 
L 9.078125 75.984375 
L 18.109375 75.984375 
z
" id="DejaVuSans-98"/>
       <path d="M 56.203125 29.59375 
L 56.203125 25.203125 
L 14.890625 25.203125 
Q 15.484375 15.921875 20.484375 11.0625 
Q 25.484375 6.203125 34.421875 6.203125 
Q 39.59375 6.203125 44.453125 7.46875 
Q 49.3125 8.734375 54.109375 11.28125 
L 54.109375 2.78125 
Q 49.265625 0.734375 44.1875 -0.34375 
Q 39.109375 -1.421875 33.890625 -1.421875 
Q 20.796875 -1.421875 13.15625 6.1875 
Q 5.515625 13.8125 5.515625 26.8125 
Q 5.515625 40.234375 12.765625 48.109375 
Q 20.015625 56 32.328125 56 
Q 43.359375 56 49.78125 48.890625 
Q 56.203125 41.796875 56.203125 29.59375 
z
M 47.21875 32.234375 
Q 47.125 39.59375 43.09375 43.984375 
Q 39.0625 48.390625 32.421875 48.390625 
Q 24.90625 48.390625 20.390625 44.140625 
Q 15.875 39.890625 15.1875 32.171875 
z
" id="DejaVuSans-101"/>
       <path d="M 41.109375 46.296875 
Q 39.59375 47.171875 37.8125 47.578125 
Q 36.03125 48 33.890625 48 
Q 26.265625 48 22.1875 43.046875 
Q 18.109375 38.09375 18.109375 28.8125 
L 18.109375 0 
L 9.078125 0 
L 9.078125 54.6875 
L 18.109375 54.6875 
L 18.109375 46.1875 
Q 20.953125 51.171875 25.484375 53.578125 
Q 30.03125 56 36.53125 56 
Q 37.453125 56 38.578125 55.875 
Q 39.703125 55.765625 41.0625 55.515625 
z
" id="DejaVuSans-114"/>
       <path id="DejaVuSans-32"/>
       <path d="M 30.609375 48.390625 
Q 23.390625 48.390625 19.1875 42.75 
Q 14.984375 37.109375 14.984375 27.296875 
Q 14.984375 17.484375 19.15625 11.84375 
Q 23.34375 6.203125 30.609375 6.203125 
Q 37.796875 6.203125 41.984375 11.859375 
Q 46.1875 17.53125 46.1875 27.296875 
Q 46.1875 37.015625 41.984375 42.703125 
Q 37.796875 48.390625 30.609375 48.390625 
z
M 30.609375 56 
Q 42.328125 56 49.015625 48.375 
Q 55.71875 40.765625 55.71875 27.296875 
Q 55.71875 13.875 49.015625 6.21875 
Q 42.328125 -1.421875 30.609375 -1.421875 
Q 18.84375 -1.421875 12.171875 6.21875 
Q 5.515625 13.875 5.515625 27.296875 
Q 5.515625 40.765625 12.171875 48.375 
Q 18.84375 56 30.609375 56 
z
" id="DejaVuSans-111"/>
       <path d="M 37.109375 75.984375 
L 37.109375 68.5 
L 28.515625 68.5 
Q 23.6875 68.5 21.796875 66.546875 
Q 19.921875 64.59375 19.921875 59.515625 
L 19.921875 54.6875 
L 34.71875 54.6875 
L 34.71875 47.703125 
L 19.921875 47.703125 
L 19.921875 0 
L 10.890625 0 
L 10.890625 47.703125 
L 2.296875 47.703125 
L 2.296875 54.6875 
L 10.890625 54.6875 
L 10.890625 58.5 
Q 10.890625 67.625 15.140625 71.796875 
Q 19.390625 75.984375 28.609375 75.984375 
z
" id="DejaVuSans-102"/>
       <path d="M 48.78125 52.59375 
L 48.78125 44.1875 
Q 44.96875 46.296875 41.140625 47.34375 
Q 37.3125 48.390625 33.40625 48.390625 
Q 24.65625 48.390625 19.8125 42.84375 
Q 14.984375 37.3125 14.984375 27.296875 
Q 14.984375 17.28125 19.8125 11.734375 
Q 24.65625 6.203125 33.40625 6.203125 
Q 37.3125 6.203125 41.140625 7.25 
Q 44.96875 8.296875 48.78125 10.40625 
L 48.78125 2.09375 
Q 45.015625 0.34375 40.984375 -0.53125 
Q 36.96875 -1.421875 32.421875 -1.421875 
Q 20.0625 -1.421875 12.78125 6.34375 
Q 5.515625 14.109375 5.515625 27.296875 
Q 5.515625 40.671875 12.859375 48.328125 
Q 20.21875 56 33.015625 56 
Q 37.15625 56 41.109375 55.140625 
Q 45.0625 54.296875 48.78125 52.59375 
z
" id="DejaVuSans-99"/>
       <path d="M 44.28125 53.078125 
L 44.28125 44.578125 
Q 40.484375 46.53125 36.375 47.5 
Q 32.28125 48.484375 27.875 48.484375 
Q 21.1875 48.484375 17.84375 46.4375 
Q 14.5 44.390625 14.5 40.28125 
Q 14.5 37.15625 16.890625 35.375 
Q 19.28125 33.59375 26.515625 31.984375 
L 29.59375 31.296875 
Q 39.15625 29.25 43.1875 25.515625 
Q 47.21875 21.78125 47.21875 15.09375 
Q 47.21875 7.46875 41.1875 3.015625 
Q 35.15625 -1.421875 24.609375 -1.421875 
Q 20.21875 -1.421875 15.453125 -0.5625 
Q 10.6875 0.296875 5.421875 2 
L 5.421875 11.28125 
Q 10.40625 8.6875 15.234375 7.390625 
Q 20.0625 6.109375 24.8125 6.109375 
Q 31.15625 6.109375 34.5625 8.28125 
Q 37.984375 10.453125 37.984375 14.40625 
Q 37.984375 18.0625 35.515625 20.015625 
Q 33.0625 21.96875 24.703125 23.78125 
L 21.578125 24.515625 
Q 13.234375 26.265625 9.515625 29.90625 
Q 5.8125 33.546875 5.8125 39.890625 
Q 5.8125 47.609375 11.28125 51.796875 
Q 16.75 56 26.8125 56 
Q 31.78125 56 36.171875 55.265625 
Q 40.578125 54.546875 44.28125 53.078125 
z
" id="DejaVuSans-115"/>
      </defs>
      <use xlink:href="#DejaVuSans-78"/>
      <use x="74.804688" xlink:href="#DejaVuSans-117"/>
      <use x="138.183594" xlink:href="#DejaVuSans-109"/>
      <use x="235.595703" xlink:href="#DejaVuSans-98"/>
      <use x="299.072266" xlink:href="#DejaVuSans-101"/>
      <use x="360.595703" xlink:href="#DejaVuSans-114"/>
      <use x="401.708984" xlink:href="#DejaVuSans-32"/>
      <use x="433.496094" xlink:href="#DejaVuSans-111"/>
      <use x="494.677734" xlink:href="#DejaVuSans-102"/>
      <use x="529.882812" xlink:href="#DejaVuSans-32"/>
      <use x="561.669922" xlink:href="#DejaVuSans-99"/>
      <use x="616.650391" xlink:href="#DejaVuSans-111"/>
      <use x="677.832031" xlink:href="#DejaVuSans-114"/>
      <use x="716.695312" xlink:href="#DejaVuSans-101"/>
      <use x="778.21875" xlink:href="#DejaVuSans-115"/>
     </g>
    </g>
   </g>
   <g id="matplotlib.axis_2">
    <g id="ytick_1">
     <g id="line2d_9">
      <path clip-path="url(#p1b95e6ff4e)" d="M 75.315 337.469431 
L 545.325 337.469431 
" style="fill:none;stroke:#b0b0b0;stroke-linecap:square;stroke-width:0.8;"/>
     </g>
     <g id="line2d_10">
      <defs>
       <path d="M 0 0 
L -3.5 0 
" id="m987c7b7c12" style="stroke:#000000;stroke-width:0.8;"/>
      </defs>
      <g>
       <use style="stroke:#000000;stroke-width:0.8;" x="75.315" xlink:href="#m987c7b7c12" y="337.469431"/>
      </g>
     </g>
     <g id="text_6">
      <!-- $\mathdefault{2^{-14}}$ -->
      <g transform="translate(44.555 341.648572)scale(0.11 -0.11)">
       <defs>
        <path d="M 10.59375 35.5 
L 73.1875 35.5 
L 73.1875 27.203125 
L 10.59375 27.203125 
z
" id="DejaVuSans-8722"/>
        <path d="M 37.796875 64.3125 
L 12.890625 25.390625 
L 37.796875 25.390625 
z
M 35.203125 72.90625 
L 47.609375 72.90625 
L 47.609375 25.390625 
L 58.015625 25.390625 
L 58.015625 17.1875 
L 47.609375 17.1875 
L 47.609375 0 
L 37.796875 0 
L 37.796875 17.1875 
L 4.890625 17.1875 
L 4.890625 26.703125 
z
" id="DejaVuSans-52"/>
       </defs>
       <use transform="translate(0 0.684375)" xlink:href="#DejaVuSans-50"/>
       <use transform="translate(64.580078 38.965625)scale(0.7)" xlink:href="#DejaVuSans-8722"/>
       <use transform="translate(123.232422 38.965625)scale(0.7)" xlink:href="#DejaVuSans-49"/>
       <use transform="translate(167.768555 38.965625)scale(0.7)" xlink:href="#DejaVuSans-52"/>
      </g>
     </g>
    </g>
    <g id="ytick_2">
     <g id="line2d_11">
      <path clip-path="url(#p1b95e6ff4e)" d="M 75.315 287.960546 
L 545.325 287.960546 
" style="fill:none;stroke:#b0b0b0;stroke-linecap:square;stroke-width:0.8;"/>
     </g>
     <g id="line2d_12">
      <g>
       <use style="stroke:#000000;stroke-width:0.8;" x="75.315" xlink:href="#m987c7b7c12" y="287.960546"/>
      </g>
     </g>
     <g id="text_7">
      <!-- $\mathdefault{2^{-12}}$ -->
      <g transform="translate(44.555 292.139687)scale(0.11 -0.11)">
       <use transform="translate(0 0.765625)" xlink:href="#DejaVuSans-50"/>
       <use transform="translate(64.580078 39.046875)scale(0.7)" xlink:href="#DejaVuSans-8722"/>
       <use transform="translate(123.232422 39.046875)scale(0.7)" xlink:href="#DejaVuSans-49"/>
       <use transform="translate(167.768555 39.046875)scale(0.7)" xlink:href="#DejaVuSans-50"/>
      </g>
     </g>
    </g>
    <g id="ytick_3">
     <g id="line2d_13">
      <path clip-path="url(#p1b95e6ff4e)" d="M 75.315 238.45166 
L 545.325 238.45166 
" style="fill:none;stroke:#b0b0b0;stroke-linecap:square;stroke-width:0.8;"/>
     </g>
     <g id="line2d_14">
      <g>
       <use style="stroke:#000000;stroke-width:0.8;" x="75.315" xlink:href="#m987c7b7c12" y="238.45166"/>
      </g>
     </g>
     <g id="text_8">
      <!-- $\mathdefault{2^{-10}}$ -->
      <g transform="translate(44.555 242.630801)scale(0.11 -0.11)">
       <defs>
        <path d="M 31.78125 66.40625 
Q 24.171875 66.40625 20.328125 58.90625 
Q 16.5 51.421875 16.5 36.375 
Q 16.5 21.390625 20.328125 13.890625 
Q 24.171875 6.390625 31.78125 6.390625 
Q 39.453125 6.390625 43.28125 13.890625 
Q 47.125 21.390625 47.125 36.375 
Q 47.125 51.421875 43.28125 58.90625 
Q 39.453125 66.40625 31.78125 66.40625 
z
M 31.78125 74.21875 
Q 44.046875 74.21875 50.515625 64.515625 
Q 56.984375 54.828125 56.984375 36.375 
Q 56.984375 17.96875 50.515625 8.265625 
Q 44.046875 -1.421875 31.78125 -1.421875 
Q 19.53125 -1.421875 13.0625 8.265625 
Q 6.59375 17.96875 6.59375 36.375 
Q 6.59375 54.828125 13.0625 64.515625 
Q 19.53125 74.21875 31.78125 74.21875 
z
" id="DejaVuSans-48"/>
       </defs>
       <use transform="translate(0 0.765625)" xlink:href="#DejaVuSans-50"/>
       <use transform="translate(64.580078 39.046875)scale(0.7)" xlink:href="#DejaVuSans-8722"/>
       <use transform="translate(123.232422 39.046875)scale(0.7)" xlink:href="#DejaVuSans-49"/>
       <use transform="translate(167.768555 39.046875)scale(0.7)" xlink:href="#DejaVuSans-48"/>
      </g>
     </g>
    </g>
    <g id="ytick_4">
     <g id="line2d_15">
      <path clip-path="url(#p1b95e6ff4e)" d="M 75.315 188.942775 
L 545.325 188.942775 
" style="fill:none;stroke:#b0b0b0;stroke-linecap:square;stroke-width:0.8;"/>
     </g>
     <g id="line2d_16">
      <g>
       <use style="stroke:#000000;stroke-width:0.8;" x="75.315" xlink:href="#m987c7b7c12" y="188.942775"/>
      </g>
     </g>
     <g id="text_9">
      <!-- $\mathdefault{2^{-8}}$ -->
      <g transform="translate(49.505 193.121915)scale(0.11 -0.11)">
       <defs>
        <path d="M 31.78125 34.625 
Q 24.75 34.625 20.71875 30.859375 
Q 16.703125 27.09375 16.703125 20.515625 
Q 16.703125 13.921875 20.71875 10.15625 
Q 24.75 6.390625 31.78125 6.390625 
Q 38.8125 6.390625 42.859375 10.171875 
Q 46.921875 13.96875 46.921875 20.515625 
Q 46.921875 27.09375 42.890625 30.859375 
Q 38.875 34.625 31.78125 34.625 
z
M 21.921875 38.8125 
Q 15.578125 40.375 12.03125 44.71875 
Q 8.5 49.078125 8.5 55.328125 
Q 8.5 64.0625 14.71875 69.140625 
Q 20.953125 74.21875 31.78125 74.21875 
Q 42.671875 74.21875 48.875 69.140625 
Q 55.078125 64.0625 55.078125 55.328125 
Q 55.078125 49.078125 51.53125 44.71875 
Q 48 40.375 41.703125 38.8125 
Q 48.828125 37.15625 52.796875 32.3125 
Q 56.78125 27.484375 56.78125 20.515625 
Q 56.78125 9.90625 50.3125 4.234375 
Q 43.84375 -1.421875 31.78125 -1.421875 
Q 19.734375 -1.421875 13.25 4.234375 
Q 6.78125 9.90625 6.78125 20.515625 
Q 6.78125 27.484375 10.78125 32.3125 
Q 14.796875 37.15625 21.921875 38.8125 
z
M 18.3125 54.390625 
Q 18.3125 48.734375 21.84375 45.5625 
Q 25.390625 42.390625 31.78125 42.390625 
Q 38.140625 42.390625 41.71875 45.5625 
Q 45.3125 48.734375 45.3125 54.390625 
Q 45.3125 60.0625 41.71875 63.234375 
Q 38.140625 66.40625 31.78125 66.40625 
Q 25.390625 66.40625 21.84375 63.234375 
Q 18.3125 60.0625 18.3125 54.390625 
z
" id="DejaVuSans-56"/>
       </defs>
       <use transform="translate(0 0.765625)" xlink:href="#DejaVuSans-50"/>
       <use transform="translate(64.580078 39.046875)scale(0.7)" xlink:href="#DejaVuSans-8722"/>
       <use transform="translate(123.232422 39.046875)scale(0.7)" xlink:href="#DejaVuSans-56"/>
      </g>
     </g>
    </g>
    <g id="ytick_5">
     <g id="line2d_17">
      <path clip-path="url(#p1b95e6ff4e)" d="M 75.315 139.433889 
L 545.325 139.433889 
" style="fill:none;stroke:#b0b0b0;stroke-linecap:square;stroke-width:0.8;"/>
     </g>
     <g id="line2d_18">
      <g>
       <use style="stroke:#000000;stroke-width:0.8;" x="75.315" xlink:href="#m987c7b7c12" y="139.433889"/>
      </g>
     </g>
     <g id="text_10">
      <!-- $\mathdefault{2^{-6}}$ -->
      <g transform="translate(49.505 143.61303)scale(0.11 -0.11)">
       <defs>
        <path d="M 33.015625 40.375 
Q 26.375 40.375 22.484375 35.828125 
Q 18.609375 31.296875 18.609375 23.390625 
Q 18.609375 15.53125 22.484375 10.953125 
Q 26.375 6.390625 33.015625 6.390625 
Q 39.65625 6.390625 43.53125 10.953125 
Q 47.40625 15.53125 47.40625 23.390625 
Q 47.40625 31.296875 43.53125 35.828125 
Q 39.65625 40.375 33.015625 40.375 
z
M 52.59375 71.296875 
L 52.59375 62.3125 
Q 48.875 64.0625 45.09375 64.984375 
Q 41.3125 65.921875 37.59375 65.921875 
Q 27.828125 65.921875 22.671875 59.328125 
Q 17.53125 52.734375 16.796875 39.40625 
Q 19.671875 43.65625 24.015625 45.921875 
Q 28.375 48.1875 33.59375 48.1875 
Q 44.578125 48.1875 50.953125 41.515625 
Q 57.328125 34.859375 57.328125 23.390625 
Q 57.328125 12.15625 50.6875 5.359375 
Q 44.046875 -1.421875 33.015625 -1.421875 
Q 20.359375 -1.421875 13.671875 8.265625 
Q 6.984375 17.96875 6.984375 36.375 
Q 6.984375 53.65625 15.1875 63.9375 
Q 23.390625 74.21875 37.203125 74.21875 
Q 40.921875 74.21875 44.703125 73.484375 
Q 48.484375 72.75 52.59375 71.296875 
z
" id="DejaVuSans-54"/>
       </defs>
       <use transform="translate(0 0.765625)" xlink:href="#DejaVuSans-50"/>
       <use transform="translate(64.580078 39.046875)scale(0.7)" xlink:href="#DejaVuSans-8722"/>
       <use transform="translate(123.232422 39.046875)scale(0.7)" xlink:href="#DejaVuSans-54"/>
      </g>
     </g>
    </g>
    <g id="ytick_6">
     <g id="line2d_19">
      <path clip-path="url(#p1b95e6ff4e)" d="M 75.315 89.925004 
L 545.325 89.925004 
" style="fill:none;stroke:#b0b0b0;stroke-linecap:square;stroke-width:0.8;"/>
     </g>
     <g id="line2d_20">
      <g>
       <use style="stroke:#000000;stroke-width:0.8;" x="75.315" xlink:href="#m987c7b7c12" y="89.925004"/>
      </g>
     </g>
     <g id="text_11">
      <!-- $\mathdefault{2^{-4}}$ -->
      <g transform="translate(49.505 94.104144)scale(0.11 -0.11)">
       <use transform="translate(0 0.684375)" xlink:href="#DejaVuSans-50"/>
       <use transform="translate(64.580078 38.965625)scale(0.7)" xlink:href="#DejaVuSans-8722"/>
       <use transform="translate(123.232422 38.965625)scale(0.7)" xlink:href="#DejaVuSans-52"/>
      </g>
     </g>
    </g>
    <g id="text_12">
     <!-- Iteration time [ms] -->
     <g transform="translate(38.267344 271.418112)rotate(-90)scale(0.11 -0.11)">
      <defs>
       <path d="M 9.8125 72.90625 
L 19.671875 72.90625 
L 19.671875 0 
L 9.8125 0 
z
" id="DejaVuSans-73"/>
       <path d="M 18.3125 70.21875 
L 18.3125 54.6875 
L 36.8125 54.6875 
L 36.8125 47.703125 
L 18.3125 47.703125 
L 18.3125 18.015625 
Q 18.3125 11.328125 20.140625 9.421875 
Q 21.96875 7.515625 27.59375 7.515625 
L 36.8125 7.515625 
L 36.8125 0 
L 27.59375 0 
Q 17.1875 0 13.234375 3.875 
Q 9.28125 7.765625 9.28125 18.015625 
L 9.28125 47.703125 
L 2.6875 47.703125 
L 2.6875 54.6875 
L 9.28125 54.6875 
L 9.28125 70.21875 
z
" id="DejaVuSans-116"/>
       <path d="M 34.28125 27.484375 
Q 23.390625 27.484375 19.1875 25 
Q 14.984375 22.515625 14.984375 16.5 
Q 14.984375 11.71875 18.140625 8.90625 
Q 21.296875 6.109375 26.703125 6.109375 
Q 34.1875 6.109375 38.703125 11.40625 
Q 43.21875 16.703125 43.21875 25.484375 
L 43.21875 27.484375 
z
M 52.203125 31.203125 
L 52.203125 0 
L 43.21875 0 
L 43.21875 8.296875 
Q 40.140625 3.328125 35.546875 0.953125 
Q 30.953125 -1.421875 24.3125 -1.421875 
Q 15.921875 -1.421875 10.953125 3.296875 
Q 6 8.015625 6 15.921875 
Q 6 25.140625 12.171875 29.828125 
Q 18.359375 34.515625 30.609375 34.515625 
L 43.21875 34.515625 
L 43.21875 35.40625 
Q 43.21875 41.609375 39.140625 45 
Q 35.0625 48.390625 27.6875 48.390625 
Q 23 48.390625 18.546875 47.265625 
Q 14.109375 46.140625 10.015625 43.890625 
L 10.015625 52.203125 
Q 14.9375 54.109375 19.578125 55.046875 
Q 24.21875 56 28.609375 56 
Q 40.484375 56 46.34375 49.84375 
Q 52.203125 43.703125 52.203125 31.203125 
z
" id="DejaVuSans-97"/>
       <path d="M 9.421875 54.6875 
L 18.40625 54.6875 
L 18.40625 0 
L 9.421875 0 
z
M 9.421875 75.984375 
L 18.40625 75.984375 
L 18.40625 64.59375 
L 9.421875 64.59375 
z
" id="DejaVuSans-105"/>
       <path d="M 54.890625 33.015625 
L 54.890625 0 
L 45.90625 0 
L 45.90625 32.71875 
Q 45.90625 40.484375 42.875 44.328125 
Q 39.84375 48.1875 33.796875 48.1875 
Q 26.515625 48.1875 22.3125 43.546875 
Q 18.109375 38.921875 18.109375 30.90625 
L 18.109375 0 
L 9.078125 0 
L 9.078125 54.6875 
L 18.109375 54.6875 
L 18.109375 46.1875 
Q 21.34375 51.125 25.703125 53.5625 
Q 30.078125 56 35.796875 56 
Q 45.21875 56 50.046875 50.171875 
Q 54.890625 44.34375 54.890625 33.015625 
z
" id="DejaVuSans-110"/>
       <path d="M 8.59375 75.984375 
L 29.296875 75.984375 
L 29.296875 69 
L 17.578125 69 
L 17.578125 -6.203125 
L 29.296875 -6.203125 
L 29.296875 -13.1875 
L 8.59375 -13.1875 
z
" id="DejaVuSans-91"/>
       <path d="M 30.421875 75.984375 
L 30.421875 -13.1875 
L 9.71875 -13.1875 
L 9.71875 -6.203125 
L 21.390625 -6.203125 
L 21.390625 69 
L 9.71875 69 
L 9.71875 75.984375 
z
" id="DejaVuSans-93"/>
      </defs>
      <use xlink:href="#DejaVuSans-73"/>
      <use x="29.492188" xlink:href="#DejaVuSans-116"/>
      <use x="68.701172" xlink:href="#DejaVuSans-101"/>
      <use x="130.224609" xlink:href="#DejaVuSans-114"/>
      <use x="171.337891" xlink:href="#DejaVuSans-97"/>
      <use x="232.617188" xlink:href="#DejaVuSans-116"/>
      <use x="271.826172" xlink:href="#DejaVuSans-105"/>
      <use x="299.609375" xlink:href="#DejaVuSans-111"/>
      <use x="360.791016" xlink:href="#DejaVuSans-110"/>
      <use x="424.169922" xlink:href="#DejaVuSans-32"/>
      <use x="455.957031" xlink:href="#DejaVuSans-116"/>
      <use x="495.166016" xlink:href="#DejaVuSans-105"/>
      <use x="522.949219" xlink:href="#DejaVuSans-109"/>
      <use x="620.361328" xlink:href="#DejaVuSans-101"/>
      <use x="681.884766" xlink:href="#DejaVuSans-32"/>
      <use x="713.671875" xlink:href="#DejaVuSans-91"/>
      <use x="752.685547" xlink:href="#DejaVuSans-109"/>
      <use x="850.097656" xlink:href="#DejaVuSans-115"/>
      <use x="902.197266" xlink:href="#DejaVuSans-93"/>
     </g>
    </g>
   </g>
   <g id="line2d_21">
    <path clip-path="url(#p1b95e6ff4e)" d="M 96.679091 275.598324 
L 363.730227 369.837527 
L 470.550682 345.79939 
L 523.960909 340.830868 
" style="fill:none;stroke:#1f77b4;stroke-linecap:square;stroke-width:1.5;"/>
    <defs>
     <path d="M 0 3 
C 0.795609 3 1.55874 2.683901 2.12132 2.12132 
C 2.683901 1.55874 3 0.795609 3 0 
C 3 -0.795609 2.683901 -1.55874 2.12132 -2.12132 
C 1.55874 -2.683901 0.795609 -3 0 -3 
C -0.795609 -3 -1.55874 -2.683901 -2.12132 -2.12132 
C -2.683901 -1.55874 -3 -0.795609 -3 0 
C -3 0.795609 -2.683901 1.55874 -2.12132 2.12132 
C -1.55874 2.683901 -0.795609 3 0 3 
z
" id="mc346263aed" style="stroke:#1f77b4;"/>
    </defs>
    <g clip-path="url(#p1b95e6ff4e)">
     <use style="fill:#1f77b4;stroke:#1f77b4;" x="96.679091" xlink:href="#mc346263aed" y="275.598324"/>
     <use style="fill:#1f77b4;stroke:#1f77b4;" x="363.730227" xlink:href="#mc346263aed" y="369.837527"/>
     <use style="fill:#1f77b4;stroke:#1f77b4;" x="470.550682" xlink:href="#mc346263aed" y="345.79939"/>
     <use style="fill:#1f77b4;stroke:#1f77b4;" x="523.960909" xlink:href="#mc346263aed" y="340.830868"/>
    </g>
   </g>
   <g id="line2d_22">
    <path clip-path="url(#p1b95e6ff4e)" d="M 96.679091 275.001603 
L 363.730227 361.165517 
L 470.550682 340.815699 
L 523.960909 335.117945 
" style="fill:none;stroke:#ff7f0e;stroke-linecap:square;stroke-width:1.5;"/>
    <defs>
     <path d="M 0 3 
C 0.795609 3 1.55874 2.683901 2.12132 2.12132 
C 2.683901 1.55874 3 0.795609 3 0 
C 3 -0.795609 2.683901 -1.55874 2.12132 -2.12132 
C 1.55874 -2.683901 0.795609 -3 0 -3 
C -0.795609 -3 -1.55874 -2.683901 -2.12132 -2.12132 
C -2.683901 -1.55874 -3 -0.795609 -3 0 
C -3 0.795609 -2.683901 1.55874 -2.12132 2.12132 
C -1.55874 2.683901 -0.795609 3 0 3 
z
" id="mfe5d37f8a2" style="stroke:#ff7f0e;"/>
    </defs>
    <g clip-path="url(#p1b95e6ff4e)">
     <use style="fill:#ff7f0e;stroke:#ff7f0e;" x="96.679091" xlink:href="#mfe5d37f8a2" y="275.001603"/>
     <use style="fill:#ff7f0e;stroke:#ff7f0e;" x="363.730227" xlink:href="#mfe5d37f8a2" y="361.165517"/>
     <use style="fill:#ff7f0e;stroke:#ff7f0e;" x="470.550682" xlink:href="#mfe5d37f8a2" y="340.815699"/>
     <use style="fill:#ff7f0e;stroke:#ff7f0e;" x="523.960909" xlink:href="#mfe5d37f8a2" y="335.117945"/>
    </g>
   </g>
   <g id="line2d_23">
    <path clip-path="url(#p1b95e6ff4e)" d="M 96.679091 274.991937 
L 363.730227 332.723382 
L 470.550682 281.814369 
L 523.960909 274.02362 
" style="fill:none;stroke:#2ca02c;stroke-linecap:square;stroke-width:1.5;"/>
    <defs>
     <path d="M 0 3 
C 0.795609 3 1.55874 2.683901 2.12132 2.12132 
C 2.683901 1.55874 3 0.795609 3 0 
C 3 -0.795609 2.683901 -1.55874 2.12132 -2.12132 
C 1.55874 -2.683901 0.795609 -3 0 -3 
C -0.795609 -3 -1.55874 -2.683901 -2.12132 -2.12132 
C -2.683901 -1.55874 -3 -0.795609 -3 0 
C -3 0.795609 -2.683901 1.55874 -2.12132 2.12132 
C -1.55874 2.683901 -0.795609 3 0 3 
z
" id="me6779bf024" style="stroke:#2ca02c;"/>
    </defs>
    <g clip-path="url(#p1b95e6ff4e)">
     <use style="fill:#2ca02c;stroke:#2ca02c;" x="96.679091" xlink:href="#me6779bf024" y="274.991937"/>
     <use style="fill:#2ca02c;stroke:#2ca02c;" x="363.730227" xlink:href="#me6779bf024" y="332.723382"/>
     <use style="fill:#2ca02c;stroke:#2ca02c;" x="470.550682" xlink:href="#me6779bf024" y="281.814369"/>
     <use style="fill:#2ca02c;stroke:#2ca02c;" x="523.960909" xlink:href="#me6779bf024" y="274.02362"/>
    </g>
   </g>
   <g id="line2d_24">
    <path clip-path="url(#p1b95e6ff4e)" d="M 96.679091 225.902321 
L 363.730227 351.858518 
L 470.550682 338.718771 
L 523.960909 336.150672 
" style="fill:none;stroke:#d62728;stroke-linecap:square;stroke-width:1.5;"/>
    <defs>
     <path d="M -0 3 
L 3 -3 
L -3 -3 
z
" id="mbb3ebb71b7" style="stroke:#d62728;stroke-linejoin:miter;"/>
    </defs>
    <g clip-path="url(#p1b95e6ff4e)">
     <use style="fill:#d62728;stroke:#d62728;stroke-linejoin:miter;" x="96.679091" xlink:href="#mbb3ebb71b7" y="225.902321"/>
     <use style="fill:#d62728;stroke:#d62728;stroke-linejoin:miter;" x="363.730227" xlink:href="#mbb3ebb71b7" y="351.858518"/>
     <use style="fill:#d62728;stroke:#d62728;stroke-linejoin:miter;" x="470.550682" xlink:href="#mbb3ebb71b7" y="338.718771"/>
     <use style="fill:#d62728;stroke:#d62728;stroke-linejoin:miter;" x="523.960909" xlink:href="#mbb3ebb71b7" y="336.150672"/>
    </g>
   </g>
   <g id="line2d_25">
    <path clip-path="url(#p1b95e6ff4e)" d="M 96.679091 225.495211 
L 363.730227 337.805734 
L 470.550682 329.251022 
L 523.960909 324.864363 
" style="fill:none;stroke:#9467bd;stroke-linecap:square;stroke-width:1.5;"/>
    <defs>
     <path d="M -0 3 
L 3 -3 
L -3 -3 
z
" id="ma1a3032e4f" style="stroke:#9467bd;stroke-linejoin:miter;"/>
    </defs>
    <g clip-path="url(#p1b95e6ff4e)">
     <use style="fill:#9467bd;stroke:#9467bd;stroke-linejoin:miter;" x="96.679091" xlink:href="#ma1a3032e4f" y="225.495211"/>
     <use style="fill:#9467bd;stroke:#9467bd;stroke-linejoin:miter;" x="363.730227" xlink:href="#ma1a3032e4f" y="337.805734"/>
     <use style="fill:#9467bd;stroke:#9467bd;stroke-linejoin:miter;" x="470.550682" xlink:href="#ma1a3032e4f" y="329.251022"/>
     <use style="fill:#9467bd;stroke:#9467bd;stroke-linejoin:miter;" x="523.960909" xlink:href="#ma1a3032e4f" y="324.864363"/>
    </g>
   </g>
   <g id="line2d_26">
    <path clip-path="url(#p1b95e6ff4e)" d="M 96.679091 225.492667 
L 363.730227 302.284078 
L 470.550682 277.320745 
L 523.960909 274.154462 
" style="fill:none;stroke:#8c564b;stroke-linecap:square;stroke-width:1.5;"/>
    <defs>
     <path d="M -0 3 
L 3 -3 
L -3 -3 
z
" id="m654a441f7b" style="stroke:#8c564b;stroke-linejoin:miter;"/>
    </defs>
    <g clip-path="url(#p1b95e6ff4e)">
     <use style="fill:#8c564b;stroke:#8c564b;stroke-linejoin:miter;" x="96.679091" xlink:href="#m654a441f7b" y="225.492667"/>
     <use style="fill:#8c564b;stroke:#8c564b;stroke-linejoin:miter;" x="363.730227" xlink:href="#m654a441f7b" y="302.284078"/>
     <use style="fill:#8c564b;stroke:#8c564b;stroke-linejoin:miter;" x="470.550682" xlink:href="#m654a441f7b" y="277.320745"/>
     <use style="fill:#8c564b;stroke:#8c564b;stroke-linejoin:miter;" x="523.960909" xlink:href="#m654a441f7b" y="274.154462"/>
    </g>
   </g>
   <g id="line2d_27">
    <path clip-path="url(#p1b95e6ff4e)" d="M 96.679091 169.544083 
L 363.730227 318.143711 
L 470.550682 325.087471 
L 523.960909 322.287874 
" style="fill:none;stroke:#e377c2;stroke-linecap:square;stroke-width:1.5;"/>
    <defs>
     <path d="M -3 3 
L 3 3 
L 3 -3 
L -3 -3 
z
" id="m28d6b5f976" style="stroke:#e377c2;stroke-linejoin:miter;"/>
    </defs>
    <g clip-path="url(#p1b95e6ff4e)">
     <use style="fill:#e377c2;stroke:#e377c2;stroke-linejoin:miter;" x="96.679091" xlink:href="#m28d6b5f976" y="169.544083"/>
     <use style="fill:#e377c2;stroke:#e377c2;stroke-linejoin:miter;" x="363.730227" xlink:href="#m28d6b5f976" y="318.143711"/>
     <use style="fill:#e377c2;stroke:#e377c2;stroke-linejoin:miter;" x="470.550682" xlink:href="#m28d6b5f976" y="325.087471"/>
     <use style="fill:#e377c2;stroke:#e377c2;stroke-linejoin:miter;" x="523.960909" xlink:href="#m28d6b5f976" y="322.287874"/>
    </g>
   </g>
   <g id="line2d_28">
    <path clip-path="url(#p1b95e6ff4e)" d="M 96.679091 169.007538 
L 363.730227 302.456421 
L 470.550682 307.357636 
L 523.960909 305.359347 
" style="fill:none;stroke:#7f7f7f;stroke-linecap:square;stroke-width:1.5;"/>
    <defs>
     <path d="M -3 3 
L 3 3 
L 3 -3 
L -3 -3 
z
" id="mbabb89faee" style="stroke:#7f7f7f;stroke-linejoin:miter;"/>
    </defs>
    <g clip-path="url(#p1b95e6ff4e)">
     <use style="fill:#7f7f7f;stroke:#7f7f7f;stroke-linejoin:miter;" x="96.679091" xlink:href="#mbabb89faee" y="169.007538"/>
     <use style="fill:#7f7f7f;stroke:#7f7f7f;stroke-linejoin:miter;" x="363.730227" xlink:href="#mbabb89faee" y="302.456421"/>
     <use style="fill:#7f7f7f;stroke:#7f7f7f;stroke-linejoin:miter;" x="470.550682" xlink:href="#mbabb89faee" y="307.357636"/>
     <use style="fill:#7f7f7f;stroke:#7f7f7f;stroke-linejoin:miter;" x="523.960909" xlink:href="#mbabb89faee" y="305.359347"/>
    </g>
   </g>
   <g id="line2d_29">
    <path clip-path="url(#p1b95e6ff4e)" d="M 96.679091 169.070584 
L 363.730227 283.209502 
L 470.550682 265.132321 
L 523.960909 264.961515 
" style="fill:none;stroke:#bcbd22;stroke-linecap:square;stroke-width:1.5;"/>
    <defs>
     <path d="M -3 3 
L 3 3 
L 3 -3 
L -3 -3 
z
" id="mda838f09e4" style="stroke:#bcbd22;stroke-linejoin:miter;"/>
    </defs>
    <g clip-path="url(#p1b95e6ff4e)">
     <use style="fill:#bcbd22;stroke:#bcbd22;stroke-linejoin:miter;" x="96.679091" xlink:href="#mda838f09e4" y="169.070584"/>
     <use style="fill:#bcbd22;stroke:#bcbd22;stroke-linejoin:miter;" x="363.730227" xlink:href="#mda838f09e4" y="283.209502"/>
     <use style="fill:#bcbd22;stroke:#bcbd22;stroke-linejoin:miter;" x="470.550682" xlink:href="#mda838f09e4" y="265.132321"/>
     <use style="fill:#bcbd22;stroke:#bcbd22;stroke-linejoin:miter;" x="523.960909" xlink:href="#mda838f09e4" y="264.961515"/>
    </g>
   </g>
   <g id="line2d_30">
    <path clip-path="url(#p1b95e6ff4e)" d="M 96.679091 118.975412 
L 363.730227 267.622427 
L 470.550682 293.596266 
L 523.960909 302.14519 
" style="fill:none;stroke:#17becf;stroke-linecap:square;stroke-width:1.5;"/>
    <defs>
     <path d="M -1.5 3 
L 0 1.5 
L 1.5 3 
L 3 1.5 
L 1.5 0 
L 3 -1.5 
L 1.5 -3 
L 0 -1.5 
L -1.5 -3 
L -3 -1.5 
L -1.5 0 
L -3 1.5 
z
" id="m625fa849b1" style="stroke:#17becf;stroke-linejoin:miter;"/>
    </defs>
    <g clip-path="url(#p1b95e6ff4e)">
     <use style="fill:#17becf;stroke:#17becf;stroke-linejoin:miter;" x="96.679091" xlink:href="#m625fa849b1" y="118.975412"/>
     <use style="fill:#17becf;stroke:#17becf;stroke-linejoin:miter;" x="363.730227" xlink:href="#m625fa849b1" y="267.622427"/>
     <use style="fill:#17becf;stroke:#17becf;stroke-linejoin:miter;" x="470.550682" xlink:href="#m625fa849b1" y="293.596266"/>
     <use style="fill:#17becf;stroke:#17becf;stroke-linejoin:miter;" x="523.960909" xlink:href="#m625fa849b1" y="302.14519"/>
    </g>
   </g>
   <g id="line2d_31">
    <path clip-path="url(#p1b95e6ff4e)" d="M 96.679091 119.080482 
L 363.730227 252.310237 
L 470.550682 266.949123 
L 523.960909 270.668979 
" style="fill:none;stroke:#1f77b4;stroke-linecap:square;stroke-width:1.5;"/>
    <defs>
     <path d="M -1.5 3 
L 0 1.5 
L 1.5 3 
L 3 1.5 
L 1.5 0 
L 3 -1.5 
L 1.5 -3 
L 0 -1.5 
L -1.5 -3 
L -3 -1.5 
L -1.5 0 
L -3 1.5 
z
" id="mb25a55fdee" style="stroke:#1f77b4;stroke-linejoin:miter;"/>
    </defs>
    <g clip-path="url(#p1b95e6ff4e)">
     <use style="fill:#1f77b4;stroke:#1f77b4;stroke-linejoin:miter;" x="96.679091" xlink:href="#mb25a55fdee" y="119.080482"/>
     <use style="fill:#1f77b4;stroke:#1f77b4;stroke-linejoin:miter;" x="363.730227" xlink:href="#mb25a55fdee" y="252.310237"/>
     <use style="fill:#1f77b4;stroke:#1f77b4;stroke-linejoin:miter;" x="470.550682" xlink:href="#mb25a55fdee" y="266.949123"/>
     <use style="fill:#1f77b4;stroke:#1f77b4;stroke-linejoin:miter;" x="523.960909" xlink:href="#mb25a55fdee" y="270.668979"/>
    </g>
   </g>
   <g id="line2d_32">
    <path clip-path="url(#p1b95e6ff4e)" d="M 96.679091 119.077768 
L 363.730227 226.313345 
L 470.550682 219.614094 
L 523.960909 225.548171 
" style="fill:none;stroke:#ff7f0e;stroke-linecap:square;stroke-width:1.5;"/>
    <defs>
     <path d="M -1.5 3 
L 0 1.5 
L 1.5 3 
L 3 1.5 
L 1.5 0 
L 3 -1.5 
L 1.5 -3 
L 0 -1.5 
L -1.5 -3 
L -3 -1.5 
L -1.5 0 
L -3 1.5 
z
" id="m6981053bf8" style="stroke:#ff7f0e;stroke-linejoin:miter;"/>
    </defs>
    <g clip-path="url(#p1b95e6ff4e)">
     <use style="fill:#ff7f0e;stroke:#ff7f0e;stroke-linejoin:miter;" x="96.679091" xlink:href="#m6981053bf8" y="119.077768"/>
     <use style="fill:#ff7f0e;stroke:#ff7f0e;stroke-linejoin:miter;" x="363.730227" xlink:href="#m6981053bf8" y="226.313345"/>
     <use style="fill:#ff7f0e;stroke:#ff7f0e;stroke-linejoin:miter;" x="470.550682" xlink:href="#m6981053bf8" y="219.614094"/>
     <use style="fill:#ff7f0e;stroke:#ff7f0e;stroke-linejoin:miter;" x="523.960909" xlink:href="#m6981053bf8" y="225.548171"/>
    </g>
   </g>
   <g id="line2d_33">
    <path clip-path="url(#p1b95e6ff4e)" d="M 96.679091 69.799254 
L 363.730227 214.197419 
L 470.550682 247.271147 
L 523.960909 258.530502 
" style="fill:none;stroke:#2ca02c;stroke-linecap:square;stroke-width:1.5;"/>
    <defs>
     <path d="M -0 4.242641 
L 2.545584 0 
L 0 -4.242641 
L -2.545584 -0 
z
" id="m1a637c16a0" style="stroke:#2ca02c;stroke-linejoin:miter;"/>
    </defs>
    <g clip-path="url(#p1b95e6ff4e)">
     <use style="fill:#2ca02c;stroke:#2ca02c;stroke-linejoin:miter;" x="96.679091" xlink:href="#m1a637c16a0" y="69.799254"/>
     <use style="fill:#2ca02c;stroke:#2ca02c;stroke-linejoin:miter;" x="363.730227" xlink:href="#m1a637c16a0" y="214.197419"/>
     <use style="fill:#2ca02c;stroke:#2ca02c;stroke-linejoin:miter;" x="470.550682" xlink:href="#m1a637c16a0" y="247.271147"/>
     <use style="fill:#2ca02c;stroke:#2ca02c;stroke-linejoin:miter;" x="523.960909" xlink:href="#m1a637c16a0" y="258.530502"/>
    </g>
   </g>
   <g id="line2d_34">
    <path clip-path="url(#p1b95e6ff4e)" d="M 96.679091 69.468073 
L 363.730227 199.954146 
L 470.550682 219.155669 
L 523.960909 223.65627 
" style="fill:none;stroke:#d62728;stroke-linecap:square;stroke-width:1.5;"/>
    <defs>
     <path d="M -0 4.242641 
L 2.545584 0 
L 0 -4.242641 
L -2.545584 -0 
z
" id="ma2b44d1782" style="stroke:#d62728;stroke-linejoin:miter;"/>
    </defs>
    <g clip-path="url(#p1b95e6ff4e)">
     <use style="fill:#d62728;stroke:#d62728;stroke-linejoin:miter;" x="96.679091" xlink:href="#ma2b44d1782" y="69.468073"/>
     <use style="fill:#d62728;stroke:#d62728;stroke-linejoin:miter;" x="363.730227" xlink:href="#ma2b44d1782" y="199.954146"/>
     <use style="fill:#d62728;stroke:#d62728;stroke-linejoin:miter;" x="470.550682" xlink:href="#ma2b44d1782" y="219.155669"/>
     <use style="fill:#d62728;stroke:#d62728;stroke-linejoin:miter;" x="523.960909" xlink:href="#ma2b44d1782" y="223.65627"/>
    </g>
   </g>
   <g id="line2d_35">
    <path clip-path="url(#p1b95e6ff4e)" d="M 96.679091 69.50644 
L 363.730227 188.783046 
L 470.550682 180.904883 
L 523.960909 179.624342 
" style="fill:none;stroke:#9467bd;stroke-linecap:square;stroke-width:1.5;"/>
    <defs>
     <path d="M -0 4.242641 
L 2.545584 0 
L 0 -4.242641 
L -2.545584 -0 
z
" id="m6f4d998555" style="stroke:#9467bd;stroke-linejoin:miter;"/>
    </defs>
    <g clip-path="url(#p1b95e6ff4e)">
     <use style="fill:#9467bd;stroke:#9467bd;stroke-linejoin:miter;" x="96.679091" xlink:href="#m6f4d998555" y="69.50644"/>
     <use style="fill:#9467bd;stroke:#9467bd;stroke-linejoin:miter;" x="363.730227" xlink:href="#m6f4d998555" y="188.783046"/>
     <use style="fill:#9467bd;stroke:#9467bd;stroke-linejoin:miter;" x="470.550682" xlink:href="#m6f4d998555" y="180.904883"/>
     <use style="fill:#9467bd;stroke:#9467bd;stroke-linejoin:miter;" x="523.960909" xlink:href="#m6f4d998555" y="179.624342"/>
    </g>
   </g>
   <g id="patch_3">
    <path d="M 75.315 384.856 
L 75.315 54.4496 
" style="fill:none;stroke:#000000;stroke-linecap:square;stroke-linejoin:miter;stroke-width:0.8;"/>
   </g>
   <g id="patch_4">
    <path d="M 545.325 384.856 
L 545.325 54.4496 
" style="fill:none;stroke:#000000;stroke-linecap:square;stroke-linejoin:miter;stroke-width:0.8;"/>
   </g>
   <g id="patch_5">
    <path d="M 75.315 384.856 
L 545.325 384.856 
" style="fill:none;stroke:#000000;stroke-linecap:square;stroke-linejoin:miter;stroke-width:0.8;"/>
   </g>
   <g id="patch_6">
    <path d="M 75.315 54.4496 
L 545.325 54.4496 
" style="fill:none;stroke:#000000;stroke-linecap:square;stroke-linejoin:miter;stroke-width:0.8;"/>
   </g>
   <g id="legend_1">
    <g id="patch_7">
     <path d="M 24.7345 50.487704 
L 548.9045 50.487704 
Q 550.5045 50.487704 550.5045 48.887704 
L 550.5045 13.792704 
Q 550.5045 12.192704 548.9045 12.192704 
L 24.7345 12.192704 
Q 23.1345 12.192704 23.1345 13.792704 
L 23.1345 48.887704 
Q 23.1345 50.487704 24.7345 50.487704 
z
" style="fill:#ffffff;opacity:0.8;stroke:#cccccc;stroke-linejoin:miter;"/>
    </g>
    <g id="line2d_36">
     <path d="M 26.3345 18.671454 
L 42.3345 18.671454 
" style="fill:none;stroke:#1f77b4;stroke-linecap:square;stroke-width:1.5;"/>
    </g>
    <g id="line2d_37">
     <g>
      <use style="fill:#1f77b4;stroke:#1f77b4;" x="34.3345" xlink:href="#mc346263aed" y="18.671454"/>
     </g>
    </g>
    <g id="text_13">
     <!-- 256_rma -->
     <g transform="translate(48.7345 21.471454)scale(0.08 -0.08)">
      <defs>
       <path d="M 50.984375 -16.609375 
L 50.984375 -23.578125 
L -0.984375 -23.578125 
L -0.984375 -16.609375 
z
" id="DejaVuSans-95"/>
      </defs>
      <use xlink:href="#DejaVuSans-50"/>
      <use x="63.623047" xlink:href="#DejaVuSans-53"/>
      <use x="127.246094" xlink:href="#DejaVuSans-54"/>
      <use x="190.869141" xlink:href="#DejaVuSans-95"/>
      <use x="240.869141" xlink:href="#DejaVuSans-114"/>
      <use x="280.232422" xlink:href="#DejaVuSans-109"/>
      <use x="377.644531" xlink:href="#DejaVuSans-97"/>
     </g>
    </g>
    <g id="line2d_38">
     <path d="M 26.3345 30.636454 
L 42.3345 30.636454 
" style="fill:none;stroke:#ff7f0e;stroke-linecap:square;stroke-width:1.5;"/>
    </g>
    <g id="line2d_39">
     <g>
      <use style="fill:#ff7f0e;stroke:#ff7f0e;" x="34.3345" xlink:href="#mfe5d37f8a2" y="30.636454"/>
     </g>
    </g>
    <g id="text_14">
     <!-- 256_rma_seq_IO -->
     <g transform="translate(48.7345 33.436454)scale(0.08 -0.08)">
      <defs>
       <path d="M 14.796875 27.296875 
Q 14.796875 17.390625 18.875 11.75 
Q 22.953125 6.109375 30.078125 6.109375 
Q 37.203125 6.109375 41.296875 11.75 
Q 45.40625 17.390625 45.40625 27.296875 
Q 45.40625 37.203125 41.296875 42.84375 
Q 37.203125 48.484375 30.078125 48.484375 
Q 22.953125 48.484375 18.875 42.84375 
Q 14.796875 37.203125 14.796875 27.296875 
z
M 45.40625 8.203125 
Q 42.578125 3.328125 38.25 0.953125 
Q 33.9375 -1.421875 27.875 -1.421875 
Q 17.96875 -1.421875 11.734375 6.484375 
Q 5.515625 14.40625 5.515625 27.296875 
Q 5.515625 40.1875 11.734375 48.09375 
Q 17.96875 56 27.875 56 
Q 33.9375 56 38.25 53.625 
Q 42.578125 51.265625 45.40625 46.390625 
L 45.40625 54.6875 
L 54.390625 54.6875 
L 54.390625 -20.796875 
L 45.40625 -20.796875 
z
" id="DejaVuSans-113"/>
       <path d="M 39.40625 66.21875 
Q 28.65625 66.21875 22.328125 58.203125 
Q 16.015625 50.203125 16.015625 36.375 
Q 16.015625 22.609375 22.328125 14.59375 
Q 28.65625 6.59375 39.40625 6.59375 
Q 50.140625 6.59375 56.421875 14.59375 
Q 62.703125 22.609375 62.703125 36.375 
Q 62.703125 50.203125 56.421875 58.203125 
Q 50.140625 66.21875 39.40625 66.21875 
z
M 39.40625 74.21875 
Q 54.734375 74.21875 63.90625 63.9375 
Q 73.09375 53.65625 73.09375 36.375 
Q 73.09375 19.140625 63.90625 8.859375 
Q 54.734375 -1.421875 39.40625 -1.421875 
Q 24.03125 -1.421875 14.8125 8.828125 
Q 5.609375 19.09375 5.609375 36.375 
Q 5.609375 53.65625 14.8125 63.9375 
Q 24.03125 74.21875 39.40625 74.21875 
z
" id="DejaVuSans-79"/>
      </defs>
      <use xlink:href="#DejaVuSans-50"/>
      <use x="63.623047" xlink:href="#DejaVuSans-53"/>
      <use x="127.246094" xlink:href="#DejaVuSans-54"/>
      <use x="190.869141" xlink:href="#DejaVuSans-95"/>
      <use x="240.869141" xlink:href="#DejaVuSans-114"/>
      <use x="280.232422" xlink:href="#DejaVuSans-109"/>
      <use x="377.644531" xlink:href="#DejaVuSans-97"/>
      <use x="438.923828" xlink:href="#DejaVuSans-95"/>
      <use x="488.923828" xlink:href="#DejaVuSans-115"/>
      <use x="541.023438" xlink:href="#DejaVuSans-101"/>
      <use x="602.546875" xlink:href="#DejaVuSans-113"/>
      <use x="666.023438" xlink:href="#DejaVuSans-95"/>
      <use x="716.023438" xlink:href="#DejaVuSans-73"/>
      <use x="745.515625" xlink:href="#DejaVuSans-79"/>
     </g>
    </g>
    <g id="line2d_40">
     <path d="M 26.3345 42.601454 
L 42.3345 42.601454 
" style="fill:none;stroke:#2ca02c;stroke-linecap:square;stroke-width:1.5;"/>
    </g>
    <g id="line2d_41">
     <g>
      <use style="fill:#2ca02c;stroke:#2ca02c;" x="34.3345" xlink:href="#me6779bf024" y="42.601454"/>
     </g>
    </g>
    <g id="text_15">
     <!-- 256_rma_par_IO -->
     <g transform="translate(48.7345 45.401454)scale(0.08 -0.08)">
      <defs>
       <path d="M 18.109375 8.203125 
L 18.109375 -20.796875 
L 9.078125 -20.796875 
L 9.078125 54.6875 
L 18.109375 54.6875 
L 18.109375 46.390625 
Q 20.953125 51.265625 25.265625 53.625 
Q 29.59375 56 35.59375 56 
Q 45.5625 56 51.78125 48.09375 
Q 58.015625 40.1875 58.015625 27.296875 
Q 58.015625 14.40625 51.78125 6.484375 
Q 45.5625 -1.421875 35.59375 -1.421875 
Q 29.59375 -1.421875 25.265625 0.953125 
Q 20.953125 3.328125 18.109375 8.203125 
z
M 48.6875 27.296875 
Q 48.6875 37.203125 44.609375 42.84375 
Q 40.53125 48.484375 33.40625 48.484375 
Q 26.265625 48.484375 22.1875 42.84375 
Q 18.109375 37.203125 18.109375 27.296875 
Q 18.109375 17.390625 22.1875 11.75 
Q 26.265625 6.109375 33.40625 6.109375 
Q 40.53125 6.109375 44.609375 11.75 
Q 48.6875 17.390625 48.6875 27.296875 
z
" id="DejaVuSans-112"/>
      </defs>
      <use xlink:href="#DejaVuSans-50"/>
      <use x="63.623047" xlink:href="#DejaVuSans-53"/>
      <use x="127.246094" xlink:href="#DejaVuSans-54"/>
      <use x="190.869141" xlink:href="#DejaVuSans-95"/>
      <use x="240.869141" xlink:href="#DejaVuSans-114"/>
      <use x="280.232422" xlink:href="#DejaVuSans-109"/>
      <use x="377.644531" xlink:href="#DejaVuSans-97"/>
      <use x="438.923828" xlink:href="#DejaVuSans-95"/>
      <use x="488.923828" xlink:href="#DejaVuSans-112"/>
      <use x="552.400391" xlink:href="#DejaVuSans-97"/>
      <use x="613.679688" xlink:href="#DejaVuSans-114"/>
      <use x="654.792969" xlink:href="#DejaVuSans-95"/>
      <use x="704.792969" xlink:href="#DejaVuSans-73"/>
      <use x="734.285156" xlink:href="#DejaVuSans-79"/>
     </g>
    </g>
    <g id="line2d_42">
     <path d="M 130.6745 18.671454 
L 146.6745 18.671454 
" style="fill:none;stroke:#d62728;stroke-linecap:square;stroke-width:1.5;"/>
    </g>
    <g id="line2d_43">
     <g>
      <use style="fill:#d62728;stroke:#d62728;stroke-linejoin:miter;" x="138.6745" xlink:href="#mbb3ebb71b7" y="18.671454"/>
     </g>
    </g>
    <g id="text_16">
     <!-- 512_rma -->
     <g transform="translate(153.0745 21.471454)scale(0.08 -0.08)">
      <use xlink:href="#DejaVuSans-53"/>
      <use x="63.623047" xlink:href="#DejaVuSans-49"/>
      <use x="127.246094" xlink:href="#DejaVuSans-50"/>
      <use x="190.869141" xlink:href="#DejaVuSans-95"/>
      <use x="240.869141" xlink:href="#DejaVuSans-114"/>
      <use x="280.232422" xlink:href="#DejaVuSans-109"/>
      <use x="377.644531" xlink:href="#DejaVuSans-97"/>
     </g>
    </g>
    <g id="line2d_44">
     <path d="M 130.6745 30.636454 
L 146.6745 30.636454 
" style="fill:none;stroke:#9467bd;stroke-linecap:square;stroke-width:1.5;"/>
    </g>
    <g id="line2d_45">
     <g>
      <use style="fill:#9467bd;stroke:#9467bd;stroke-linejoin:miter;" x="138.6745" xlink:href="#ma1a3032e4f" y="30.636454"/>
     </g>
    </g>
    <g id="text_17">
     <!-- 512_rma_seq_IO -->
     <g transform="translate(153.0745 33.436454)scale(0.08 -0.08)">
      <use xlink:href="#DejaVuSans-53"/>
      <use x="63.623047" xlink:href="#DejaVuSans-49"/>
      <use x="127.246094" xlink:href="#DejaVuSans-50"/>
      <use x="190.869141" xlink:href="#DejaVuSans-95"/>
      <use x="240.869141" xlink:href="#DejaVuSans-114"/>
      <use x="280.232422" xlink:href="#DejaVuSans-109"/>
      <use x="377.644531" xlink:href="#DejaVuSans-97"/>
      <use x="438.923828" xlink:href="#DejaVuSans-95"/>
      <use x="488.923828" xlink:href="#DejaVuSans-115"/>
      <use x="541.023438" xlink:href="#DejaVuSans-101"/>
      <use x="602.546875" xlink:href="#DejaVuSans-113"/>
      <use x="666.023438" xlink:href="#DejaVuSans-95"/>
      <use x="716.023438" xlink:href="#DejaVuSans-73"/>
      <use x="745.515625" xlink:href="#DejaVuSans-79"/>
     </g>
    </g>
    <g id="line2d_46">
     <path d="M 130.6745 42.601454 
L 146.6745 42.601454 
" style="fill:none;stroke:#8c564b;stroke-linecap:square;stroke-width:1.5;"/>
    </g>
    <g id="line2d_47">
     <g>
      <use style="fill:#8c564b;stroke:#8c564b;stroke-linejoin:miter;" x="138.6745" xlink:href="#m654a441f7b" y="42.601454"/>
     </g>
    </g>
    <g id="text_18">
     <!-- 512_rma_par_IO -->
     <g transform="translate(153.0745 45.401454)scale(0.08 -0.08)">
      <use xlink:href="#DejaVuSans-53"/>
      <use x="63.623047" xlink:href="#DejaVuSans-49"/>
      <use x="127.246094" xlink:href="#DejaVuSans-50"/>
      <use x="190.869141" xlink:href="#DejaVuSans-95"/>
      <use x="240.869141" xlink:href="#DejaVuSans-114"/>
      <use x="280.232422" xlink:href="#DejaVuSans-109"/>
      <use x="377.644531" xlink:href="#DejaVuSans-97"/>
      <use x="438.923828" xlink:href="#DejaVuSans-95"/>
      <use x="488.923828" xlink:href="#DejaVuSans-112"/>
      <use x="552.400391" xlink:href="#DejaVuSans-97"/>
      <use x="613.679688" xlink:href="#DejaVuSans-114"/>
      <use x="654.792969" xlink:href="#DejaVuSans-95"/>
      <use x="704.792969" xlink:href="#DejaVuSans-73"/>
      <use x="734.285156" xlink:href="#DejaVuSans-79"/>
     </g>
    </g>
    <g id="line2d_48">
     <path d="M 235.0145 18.671454 
L 251.0145 18.671454 
" style="fill:none;stroke:#e377c2;stroke-linecap:square;stroke-width:1.5;"/>
    </g>
    <g id="line2d_49">
     <g>
      <use style="fill:#e377c2;stroke:#e377c2;stroke-linejoin:miter;" x="243.0145" xlink:href="#m28d6b5f976" y="18.671454"/>
     </g>
    </g>
    <g id="text_19">
     <!-- 1024_rma -->
     <g transform="translate(257.4145 21.471454)scale(0.08 -0.08)">
      <use xlink:href="#DejaVuSans-49"/>
      <use x="63.623047" xlink:href="#DejaVuSans-48"/>
      <use x="127.246094" xlink:href="#DejaVuSans-50"/>
      <use x="190.869141" xlink:href="#DejaVuSans-52"/>
      <use x="254.492188" xlink:href="#DejaVuSans-95"/>
      <use x="304.492188" xlink:href="#DejaVuSans-114"/>
      <use x="343.855469" xlink:href="#DejaVuSans-109"/>
      <use x="441.267578" xlink:href="#DejaVuSans-97"/>
     </g>
    </g>
    <g id="line2d_50">
     <path d="M 235.0145 30.636454 
L 251.0145 30.636454 
" style="fill:none;stroke:#7f7f7f;stroke-linecap:square;stroke-width:1.5;"/>
    </g>
    <g id="line2d_51">
     <g>
      <use style="fill:#7f7f7f;stroke:#7f7f7f;stroke-linejoin:miter;" x="243.0145" xlink:href="#mbabb89faee" y="30.636454"/>
     </g>
    </g>
    <g id="text_20">
     <!-- 1024_rma_seq_IO -->
     <g transform="translate(257.4145 33.436454)scale(0.08 -0.08)">
      <use xlink:href="#DejaVuSans-49"/>
      <use x="63.623047" xlink:href="#DejaVuSans-48"/>
      <use x="127.246094" xlink:href="#DejaVuSans-50"/>
      <use x="190.869141" xlink:href="#DejaVuSans-52"/>
      <use x="254.492188" xlink:href="#DejaVuSans-95"/>
      <use x="304.492188" xlink:href="#DejaVuSans-114"/>
      <use x="343.855469" xlink:href="#DejaVuSans-109"/>
      <use x="441.267578" xlink:href="#DejaVuSans-97"/>
      <use x="502.546875" xlink:href="#DejaVuSans-95"/>
      <use x="552.546875" xlink:href="#DejaVuSans-115"/>
      <use x="604.646484" xlink:href="#DejaVuSans-101"/>
      <use x="666.169922" xlink:href="#DejaVuSans-113"/>
      <use x="729.646484" xlink:href="#DejaVuSans-95"/>
      <use x="779.646484" xlink:href="#DejaVuSans-73"/>
      <use x="809.138672" xlink:href="#DejaVuSans-79"/>
     </g>
    </g>
    <g id="line2d_52">
     <path d="M 235.0145 42.601454 
L 251.0145 42.601454 
" style="fill:none;stroke:#bcbd22;stroke-linecap:square;stroke-width:1.5;"/>
    </g>
    <g id="line2d_53">
     <g>
      <use style="fill:#bcbd22;stroke:#bcbd22;stroke-linejoin:miter;" x="243.0145" xlink:href="#mda838f09e4" y="42.601454"/>
     </g>
    </g>
    <g id="text_21">
     <!-- 1024_rma_par_IO -->
     <g transform="translate(257.4145 45.401454)scale(0.08 -0.08)">
      <use xlink:href="#DejaVuSans-49"/>
      <use x="63.623047" xlink:href="#DejaVuSans-48"/>
      <use x="127.246094" xlink:href="#DejaVuSans-50"/>
      <use x="190.869141" xlink:href="#DejaVuSans-52"/>
      <use x="254.492188" xlink:href="#DejaVuSans-95"/>
      <use x="304.492188" xlink:href="#DejaVuSans-114"/>
      <use x="343.855469" xlink:href="#DejaVuSans-109"/>
      <use x="441.267578" xlink:href="#DejaVuSans-97"/>
      <use x="502.546875" xlink:href="#DejaVuSans-95"/>
      <use x="552.546875" xlink:href="#DejaVuSans-112"/>
      <use x="616.023438" xlink:href="#DejaVuSans-97"/>
      <use x="677.302734" xlink:href="#DejaVuSans-114"/>
      <use x="718.416016" xlink:href="#DejaVuSans-95"/>
      <use x="768.416016" xlink:href="#DejaVuSans-73"/>
      <use x="797.908203" xlink:href="#DejaVuSans-79"/>
     </g>
    </g>
    <g id="line2d_54">
     <path d="M 344.4445 18.671454 
L 360.4445 18.671454 
" style="fill:none;stroke:#17becf;stroke-linecap:square;stroke-width:1.5;"/>
    </g>
    <g id="line2d_55">
     <g>
      <use style="fill:#17becf;stroke:#17becf;stroke-linejoin:miter;" x="352.4445" xlink:href="#m625fa849b1" y="18.671454"/>
     </g>
    </g>
    <g id="text_22">
     <!-- 2048_rma -->
     <g transform="translate(366.8445 21.471454)scale(0.08 -0.08)">
      <use xlink:href="#DejaVuSans-50"/>
      <use x="63.623047" xlink:href="#DejaVuSans-48"/>
      <use x="127.246094" xlink:href="#DejaVuSans-52"/>
      <use x="190.869141" xlink:href="#DejaVuSans-56"/>
      <use x="254.492188" xlink:href="#DejaVuSans-95"/>
      <use x="304.492188" xlink:href="#DejaVuSans-114"/>
      <use x="343.855469" xlink:href="#DejaVuSans-109"/>
      <use x="441.267578" xlink:href="#DejaVuSans-97"/>
     </g>
    </g>
    <g id="line2d_56">
     <path d="M 344.4445 30.636454 
L 360.4445 30.636454 
" style="fill:none;stroke:#1f77b4;stroke-linecap:square;stroke-width:1.5;"/>
    </g>
    <g id="line2d_57">
     <g>
      <use style="fill:#1f77b4;stroke:#1f77b4;stroke-linejoin:miter;" x="352.4445" xlink:href="#mb25a55fdee" y="30.636454"/>
     </g>
    </g>
    <g id="text_23">
     <!-- 2048_rma_seq_IO -->
     <g transform="translate(366.8445 33.436454)scale(0.08 -0.08)">
      <use xlink:href="#DejaVuSans-50"/>
      <use x="63.623047" xlink:href="#DejaVuSans-48"/>
      <use x="127.246094" xlink:href="#DejaVuSans-52"/>
      <use x="190.869141" xlink:href="#DejaVuSans-56"/>
      <use x="254.492188" xlink:href="#DejaVuSans-95"/>
      <use x="304.492188" xlink:href="#DejaVuSans-114"/>
      <use x="343.855469" xlink:href="#DejaVuSans-109"/>
      <use x="441.267578" xlink:href="#DejaVuSans-97"/>
      <use x="502.546875" xlink:href="#DejaVuSans-95"/>
      <use x="552.546875" xlink:href="#DejaVuSans-115"/>
      <use x="604.646484" xlink:href="#DejaVuSans-101"/>
      <use x="666.169922" xlink:href="#DejaVuSans-113"/>
      <use x="729.646484" xlink:href="#DejaVuSans-95"/>
      <use x="779.646484" xlink:href="#DejaVuSans-73"/>
      <use x="809.138672" xlink:href="#DejaVuSans-79"/>
     </g>
    </g>
    <g id="line2d_58">
     <path d="M 344.4445 42.601454 
L 360.4445 42.601454 
" style="fill:none;stroke:#ff7f0e;stroke-linecap:square;stroke-width:1.5;"/>
    </g>
    <g id="line2d_59">
     <g>
      <use style="fill:#ff7f0e;stroke:#ff7f0e;stroke-linejoin:miter;" x="352.4445" xlink:href="#m6981053bf8" y="42.601454"/>
     </g>
    </g>
    <g id="text_24">
     <!-- 2048_rma_par_IO -->
     <g transform="translate(366.8445 45.401454)scale(0.08 -0.08)">
      <use xlink:href="#DejaVuSans-50"/>
      <use x="63.623047" xlink:href="#DejaVuSans-48"/>
      <use x="127.246094" xlink:href="#DejaVuSans-52"/>
      <use x="190.869141" xlink:href="#DejaVuSans-56"/>
      <use x="254.492188" xlink:href="#DejaVuSans-95"/>
      <use x="304.492188" xlink:href="#DejaVuSans-114"/>
      <use x="343.855469" xlink:href="#DejaVuSans-109"/>
      <use x="441.267578" xlink:href="#DejaVuSans-97"/>
      <use x="502.546875" xlink:href="#DejaVuSans-95"/>
      <use x="552.546875" xlink:href="#DejaVuSans-112"/>
      <use x="616.023438" xlink:href="#DejaVuSans-97"/>
      <use x="677.302734" xlink:href="#DejaVuSans-114"/>
      <use x="718.416016" xlink:href="#DejaVuSans-95"/>
      <use x="768.416016" xlink:href="#DejaVuSans-73"/>
      <use x="797.908203" xlink:href="#DejaVuSans-79"/>
     </g>
    </g>
    <g id="line2d_60">
     <path d="M 453.8745 18.671454 
L 469.8745 18.671454 
" style="fill:none;stroke:#2ca02c;stroke-linecap:square;stroke-width:1.5;"/>
    </g>
    <g id="line2d_61">
     <g>
      <use style="fill:#2ca02c;stroke:#2ca02c;stroke-linejoin:miter;" x="461.8745" xlink:href="#m1a637c16a0" y="18.671454"/>
     </g>
    </g>
    <g id="text_25">
     <!-- 4096_rma -->
     <g transform="translate(476.2745 21.471454)scale(0.08 -0.08)">
      <defs>
       <path d="M 10.984375 1.515625 
L 10.984375 10.5 
Q 14.703125 8.734375 18.5 7.8125 
Q 22.3125 6.890625 25.984375 6.890625 
Q 35.75 6.890625 40.890625 13.453125 
Q 46.046875 20.015625 46.78125 33.40625 
Q 43.953125 29.203125 39.59375 26.953125 
Q 35.25 24.703125 29.984375 24.703125 
Q 19.046875 24.703125 12.671875 31.3125 
Q 6.296875 37.9375 6.296875 49.421875 
Q 6.296875 60.640625 12.9375 67.421875 
Q 19.578125 74.21875 30.609375 74.21875 
Q 43.265625 74.21875 49.921875 64.515625 
Q 56.59375 54.828125 56.59375 36.375 
Q 56.59375 19.140625 48.40625 8.859375 
Q 40.234375 -1.421875 26.421875 -1.421875 
Q 22.703125 -1.421875 18.890625 -0.6875 
Q 15.09375 0.046875 10.984375 1.515625 
z
M 30.609375 32.421875 
Q 37.25 32.421875 41.125 36.953125 
Q 45.015625 41.5 45.015625 49.421875 
Q 45.015625 57.28125 41.125 61.84375 
Q 37.25 66.40625 30.609375 66.40625 
Q 23.96875 66.40625 20.09375 61.84375 
Q 16.21875 57.28125 16.21875 49.421875 
Q 16.21875 41.5 20.09375 36.953125 
Q 23.96875 32.421875 30.609375 32.421875 
z
" id="DejaVuSans-57"/>
      </defs>
      <use xlink:href="#DejaVuSans-52"/>
      <use x="63.623047" xlink:href="#DejaVuSans-48"/>
      <use x="127.246094" xlink:href="#DejaVuSans-57"/>
      <use x="190.869141" xlink:href="#DejaVuSans-54"/>
      <use x="254.492188" xlink:href="#DejaVuSans-95"/>
      <use x="304.492188" xlink:href="#DejaVuSans-114"/>
      <use x="343.855469" xlink:href="#DejaVuSans-109"/>
      <use x="441.267578" xlink:href="#DejaVuSans-97"/>
     </g>
    </g>
    <g id="line2d_62">
     <path d="M 453.8745 30.636454 
L 469.8745 30.636454 
" style="fill:none;stroke:#d62728;stroke-linecap:square;stroke-width:1.5;"/>
    </g>
    <g id="line2d_63">
     <g>
      <use style="fill:#d62728;stroke:#d62728;stroke-linejoin:miter;" x="461.8745" xlink:href="#ma2b44d1782" y="30.636454"/>
     </g>
    </g>
    <g id="text_26">
     <!-- 4096_rma_seq_IO -->
     <g transform="translate(476.2745 33.436454)scale(0.08 -0.08)">
      <use xlink:href="#DejaVuSans-52"/>
      <use x="63.623047" xlink:href="#DejaVuSans-48"/>
      <use x="127.246094" xlink:href="#DejaVuSans-57"/>
      <use x="190.869141" xlink:href="#DejaVuSans-54"/>
      <use x="254.492188" xlink:href="#DejaVuSans-95"/>
      <use x="304.492188" xlink:href="#DejaVuSans-114"/>
      <use x="343.855469" xlink:href="#DejaVuSans-109"/>
      <use x="441.267578" xlink:href="#DejaVuSans-97"/>
      <use x="502.546875" xlink:href="#DejaVuSans-95"/>
      <use x="552.546875" xlink:href="#DejaVuSans-115"/>
      <use x="604.646484" xlink:href="#DejaVuSans-101"/>
      <use x="666.169922" xlink:href="#DejaVuSans-113"/>
      <use x="729.646484" xlink:href="#DejaVuSans-95"/>
      <use x="779.646484" xlink:href="#DejaVuSans-73"/>
      <use x="809.138672" xlink:href="#DejaVuSans-79"/>
     </g>
    </g>
    <g id="line2d_64">
     <path d="M 453.8745 42.601454 
L 469.8745 42.601454 
" style="fill:none;stroke:#9467bd;stroke-linecap:square;stroke-width:1.5;"/>
    </g>
    <g id="line2d_65">
     <g>
      <use style="fill:#9467bd;stroke:#9467bd;stroke-linejoin:miter;" x="461.8745" xlink:href="#m6f4d998555" y="42.601454"/>
     </g>
    </g>
    <g id="text_27">
     <!-- 4096_rma_par_IO -->
     <g transform="translate(476.2745 45.401454)scale(0.08 -0.08)">
      <use xlink:href="#DejaVuSans-52"/>
      <use x="63.623047" xlink:href="#DejaVuSans-48"/>
      <use x="127.246094" xlink:href="#DejaVuSans-57"/>
      <use x="190.869141" xlink:href="#DejaVuSans-54"/>
      <use x="254.492188" xlink:href="#DejaVuSans-95"/>
      <use x="304.492188" xlink:href="#DejaVuSans-114"/>
      <use x="343.855469" xlink:href="#DejaVuSans-109"/>
      <use x="441.267578" xlink:href="#DejaVuSans-97"/>
      <use x="502.546875" xlink:href="#DejaVuSans-95"/>
      <use x="552.546875" xlink:href="#DejaVuSans-112"/>
      <use x="616.023438" xlink:href="#DejaVuSans-97"/>
      <use x="677.302734" xlink:href="#DejaVuSans-114"/>
      <use x="718.416016" xlink:href="#DejaVuSans-95"/>
      <use x="768.416016" xlink:href="#DejaVuSans-73"/>
      <use x="797.908203" xlink:href="#DejaVuSans-79"/>
     </g>
    </g>
   </g>
  </g>
 </g>
 <defs>
  <clipPath id="p1b95e6ff4e">
   <rect height="330.4064" width="470.01" x="75.315" y="54.4496"/>
  </clipPath>
 </defs>
</svg>
